<?xml version="1.0" encoding="UTF-8"?>
<svg version="1.1" viewBox="0 0 1600 1128" width="1280" height="1280" xmlns="http://www.w3.org/2000/svg">
<path transform="translate(982 239)" d="m0 0c1.25 0.288 2.5 0.577 3.79 0.874 1.35 0.323 2.69 0.647 4.04 0.971 1.34 0.315 2.68 0.63 4.01 0.945 4.35 1.03 8.7 2.09 13 3.14 1.61 0.39 3.21 0.779 4.82 1.17 3.34 0.811 6.68 1.62 10 2.44 4.24 1.03 8.48 2.06 12.7 3.09 3.31 0.802 6.62 1.61 9.93 2.41 1.56 0.38 3.12 0.759 4.69 1.14 13.3 3.23 26.5 6.84 39.6 11.1 0.959 0.311 1.92 0.621 2.9 0.941 2.01 0.652 4.01 1.3 6.02 1.96 3.01 0.98 6.02 1.95 9.03 2.92 11.9 3.87 23.7 8.01 35.2 12.8 0.646 0.254 1.29 0.507 1.96 0.768 4.68 1.89 7.14 4.22 9.98 8.29 0.852 1.16 1.7 2.33 2.56 3.49 0.417 0.578 0.835 1.16 1.27 1.75 1.84 2.52 3.79 4.95 5.74 7.38 0.629 0.788 1.26 1.58 1.91 2.39 1.6 1.99 1.6 1.99 3.59 3.93 1.34 1.66 2.68 3.33 4 5 0.66 0.825 1.32 1.65 2 2.5 0.66 0.825 1.32 1.65 2 2.5 0.619 0.763 1.24 1.53 1.88 2.31 2.3 2.91 4.49 5.9 6.66 8.92 1.53 2.02 1.53 2.02 4.46 3.77 4.14 5.47 5.52 10.9 6.41 17.6 0.698 4.06 1.82 7.88 3.03 11.8 1.92 6.27 3.45 12.5 4.75 18.9 0.968 4.36 2.16 8.63 3.38 12.9 0.426 1.54 0.852 3.09 1.28 4.63 0.649 2.35 1.33 4.65 2.1 6.96 2.14 7.34-0.655 13.4-3.25 20.2-1.09 3.01-1.91 6.09-2.76 9.18-1.18 4.25-2.49 8.37-4.06 12.5-1.61 4.27-2.58 8.43-3.38 12.9-0.618 2.93-1.59 5.59-2.74 8.35-0.805 1.98-0.805 1.98-1.23 4.09-1.87 7.79-7.56 12.9-13.5 17.9h-2c-0.266 0.567-0.531 1.13-0.805 1.72-2.96 5.65-6.45 9.98-12.3 12.8-12.8 3.82-31 6.35-43.6 1.48-4.66-2.56-8.61-5.83-12.5-9.4-2.56-2.27-5.29-4.13-8.12-6.05-1.01-0.703-2.02-1.41-3.07-2.13-2.82-1.91-5.7-3.72-8.59-5.52-0.873-0.544-1.75-1.09-2.65-1.65-1.74-1.08-3.48-2.15-5.23-3.21-0.79-0.489-1.58-0.977-2.4-1.48-0.713-0.435-1.43-0.87-2.16-1.32-0.507-0.391-1.01-0.783-1.54-1.19v-2h-2c-0.171-0.801-0.343-1.6-0.519-2.43-0.645-3.01-1.29-6.03-1.93-9.04-0.413-1.93-0.825-3.86-1.24-5.79-2.36-11-4.83-22-7.4-33-0.479-2.05-0.957-4.1-1.43-6.15-1.23-5.29-1.23-5.29-2.48-10.6-0.147-0.736-0.294-1.47-0.445-2.23-0.843-2.69-2.75-4.43-4.59-6.5-2.55-2.95-4.95-6-7.34-9.09-0.453-0.575-0.906-1.15-1.37-1.74-3.25-4.21-3.25-4.21-3.25-6.44h-2c-0.66-1.65-1.32-3.3-2-5h-2c-0.247-0.784-0.495-1.57-0.75-2.38-1.44-3.03-2.31-3.3-5.25-4.62-0.33-0.99-0.66-1.98-1-3-2.21-0.965-2.21-0.965-4.98-1.58-1.6-0.405-1.6-0.405-3.23-0.819-1.17-0.281-2.33-0.563-3.53-0.853-1.2-0.3-2.4-0.6-3.64-0.909-3.21-0.799-6.43-1.59-9.65-2.36-1.94-0.47-3.89-0.943-5.83-1.42-6.21-1.51-12.4-3.01-18.6-4.5-6.29-1.51-12.6-3.07-18.8-4.69-2.67-0.635-5.29-1.18-7.99-1.65-14.9-2.68-26.1-9.22-38.3-17.9-1.18-0.826-2.37-1.65-3.55-2.48-2.33-1.62-4.61-3.28-6.88-4.97-9.1-6.55-16.1-7.02-27-5.44-3.02 0.538-6.01 1.18-9 1.86-2.17 0.462-4.34 0.92-6.51 1.38-1.07 0.224-2.13 0.449-3.23 0.68-4.69 0.947-9.4 1.73-14.1 2.45-1.17 0.185-1.17 0.185-2.37 0.374-7.92 1.17-15 1.41-22.6-1.19v-2c-0.716-0.127-1.43-0.254-2.17-0.385-2.82-0.614-5.39-1.46-8.1-2.46-0.99-0.358-1.98-0.715-3-1.08-2.06-0.752-4.12-1.51-6.18-2.27-8.18-2.94-13.9-3.38-22.4-1.23-10.1 2.25-17.4 0.714-26.6-3.75-2.69-0.852-4.4-0.778-7.19-0.625-2.38 0.0664-2.38 0.0664-4.38-0.188-1.56-2.38-1.56-2.38-3-5-2.66-1.06-5.16-1.49-8-2 0.33-0.99 0.66-1.98 1-3 4.46-0.495 4.46-0.495 9-1 0.33-1.32 0.66-2.64 1-4 1.11 0.0157 1.11 0.0157 2.24 0.0317 3.4 0.0419 6.8 0.0677 10.2 0.0933 1.16 0.0168 2.33 0.0335 3.53 0.0508 9.95 0.0561 17.7-1.16 26.6-5.68 8.17-4.14 14.8-5.91 24-5.06 12.7 0.86 22.9 1.32 34.1-5.76 5.39-3.39 11-6.28 16.7-9.21 1.84-0.957 3.68-1.92 5.52-2.89 1.71-0.887 1.71-0.887 3.45-1.79 1.03-0.536 2.05-1.07 3.11-1.62 2.6-1.16 2.6-1.16 5.6-1.16 0.33 0.99 0.66 1.98 1 3 6.64 0.34 13.3 0.621 19.9 0.867 2.7 0.117 5.38 0.288 8.08 0.481 15.6 0.86 35.8-2.21 48-12.3h2v-2c2.49-1.8 5.11-3.32 7.74-4.9 2.32-1.49 4.3-2.91 6.39-4.66 0.53-0.425 1.06-0.849 1.61-1.29 1.5-1.21 2.97-2.46 4.44-3.72 3.55-1.96 6.15-1.18 10-0.275zm84.8 207 1 2z" fill="#F1921E"/>
<path transform="translate(578,467)" d="m0 0c0.0752 0.738 0.15 1.48 0.228 2.24 1.35 13.2 2.75 26.3 4.71 39.4 0.982 6.6 1.76 13.2 2.41 19.9 0.346 3.88 0.346 3.88 1.65 7.51 0.265 1.55 0.486 3.11 0.684 4.66 0.122 0.951 0.244 1.9 0.37 2.88 0.127 1.02 0.254 2.03 0.384 3.08 0.132 1.03 0.264 2.06 0.4 3.12 0.608 4.76 1.2 9.53 1.77 14.3 0.134 1.11 0.134 1.11 0.27 2.24 0.236 1.97 0.466 3.95 0.695 5.92 0.133 2.69 0.133 2.69 1.43 3.79 0.338 2.23 0.615 4.46 0.867 6.7 0.0793 0.695 0.159 1.39 0.24 2.1 0.26 2.29 0.514 4.59 0.768 6.88 0.179 1.58 0.358 3.17 0.537 4.75 0.869 7.74 1.7 15.5 2.45 23.2 0.066 0.678 0.132 1.36 0.2 2.06 0.309 3.19 0.611 6.38 0.901 9.58 0.54 5.71 1.21 11.2 2.6 16.8 0.455 1.96 0.709 3.89 0.938 5.89 0.165 0.99 0.33 1.98 0.5 3 0.66 0.33 1.32 0.66 2 1 0.193-0.652 0.387-1.3 0.586-1.98 1.4-4.7 2.86-9.37 4.41-14 1.47-4.55 2.86-8.94 3.5-13.7 0.474-3.14 1.42-5.54 2.69-8.42 3.61-8.45 6-17.4 8.13-26.3 0.9-3.42 2.17-6.38 3.68-9.58 0.522-1.29 1.04-2.58 1.56-3.88 1.44-3.12 1.44-3.12 3.44-4.12 2.18-0.0856 4.36-0.107 6.54-0.0977 1.95 0.00483 1.95 0.00483 3.95 0.00977 1.38 0.00836 2.76 0.0168 4.14 0.0254 1.39 0.00501 2.78 0.00958 4.16 0.0137 3.4 0.0118 6.81 0.0283 10.2 0.0488 0.128 0.675 0.255 1.35 0.387 2.05 0.173 0.892 0.345 1.78 0.523 2.7 0.253 1.32 0.253 1.32 0.512 2.67 0.667 2.97 1.66 5.69 2.79 8.51 1.22 3.2 2.14 6.48 3.09 9.76 0.708 2.46 0.708 2.46 1.88 5.37 0.759 2.74 0.845 4.51 0.75 7.31-0.131 4.84 1.1 8.22 3.06 12.6l1 1c0.227 1.3 0.454 2.6 0.688 3.94 1.78 9.39 5.32 18.4 8.5 27.4 0.812 2.64 0.812 2.64 0.812 5.64h3c0.484-3.9 0.962-7.79 1.44-11.7 0.14-1.15 0.28-2.29 0.424-3.47 0.812-6.76 1.51-13.5 1.83-20.3 0.309-2.55 0.309-2.55 1.27-5.2 1.19-3.84 1.66-7.59 2.04-11.6 0.122-1.16 0.122-1.16 0.246-2.35 0.258-2.46 0.507-4.92 0.754-7.38 0.326-3.24 0.661-6.48 1-9.71 0.0709-0.733 0.142-1.47 0.215-2.22 0.479-4.57 1.5-8.71 2.79-13.1 0.259-1.96 0.461-3.93 0.598-5.9 0.0793-1.06 0.159-2.11 0.24-3.2 0.111-1.62 0.111-1.62 0.225-3.28 0.154-2.17 0.311-4.35 0.473-6.52 0.0658-0.956 0.132-1.91 0.199-2.9 0.265-2.21 0.265-2.21 1.27-3.21 1.26-6.8 2.02-13.7 2.44-20.6 0.292-4.4 0.964-8.42 2.06-12.7 1.54-6.1 1.98-12 2.21-18.3 0.204-5.38 0.204-5.38 1.29-6.47 0.369-1.85 0.683-3.71 0.973-5.57 0.16-1.01 0.32-2.03 0.485-3.07 0.2-1.3 0.399-2.59 0.605-3.93 0.639-4.1 1.28-8.21 1.94-12.4h42c0 6 0 6-1 9-0.344 2.39-0.651 4.79-0.938 7.19-0.127 1.05-0.127 1.05-0.258 2.12-0.271 2.23-0.539 4.46-0.805 6.69-0.351 2.94-0.705 5.88-1.06 8.81-0.234 1.96-0.234 1.96-0.473 3.96-0.465 3.23-0.465 3.23-1.46 6.23-0.177 1.88-0.348 3.76-0.493 5.64-0.899 11.5-2.54 22.8-4.26 34.2-2.7 18-5.08 35.9-7.33 54-0.121 0.968-0.243 1.94-0.368 2.93-0.226 1.81-0.451 3.62-0.674 5.43-0.534 4.29-1.15 8.54-1.87 12.8-0.217 1.67-0.421 3.33-0.613 5-0.112 0.956-0.223 1.91-0.338 2.9-0.119 1.02-0.238 2.05-0.361 3.1-1.19 10.1-2.47 20.2-3.81 30.2-0.171 1.29-0.341 2.58-0.517 3.91-0.162 1.21-0.324 2.42-0.491 3.67-0.143 1.07-0.286 2.14-0.434 3.25-0.265 1.79-0.566 3.58-0.929 5.35-0.645 3.29-1.04 6.59-1.44 9.92-0.174 1.42-0.349 2.85-0.523 4.27-0.271 2.23-0.54 4.45-0.81 6.68-0.262 2.16-0.527 4.32-0.792 6.48-0.156 1.29-0.312 2.58-0.473 3.9-0.355 2.53-0.839 4.85-1.46 7.31-0.254 1.91-0.479 3.82-0.684 5.73-0.122 1.12-0.244 2.25-0.37 3.41-0.127 1.19-0.254 2.38-0.384 3.61-0.266 2.44-0.533 4.88-0.801 7.32-0.13 1.19-0.259 2.37-0.393 3.59-0.476 4.3-0.97 8.6-1.49 12.9-0.147 1.22-0.294 2.44-0.445 3.69-0.43 2.75-0.43 2.75-1.43 4.75h-32v-3h-2c-0.121-0.699-0.242-1.4-0.367-2.12-0.168-0.91-0.335-1.82-0.508-2.76-0.162-0.905-0.325-1.81-0.492-2.74-0.463-2.55-0.463-2.55-2.63-4.38-0.594-2.08-1.1-4.19-1.56-6.31-0.249-1.13-0.498-2.26-0.754-3.43-0.417-1.99-0.807-3.99-1.15-5.99-0.457-2.53-0.457-2.53-2.54-5.27-0.363-2.35-0.503-4.67-0.656-7.04-0.113-0.647-0.227-1.29-0.344-1.96-0.66-0.33-1.32-0.66-2-1-1.75-4.83-2.95-9.9-3.56-15-0.244-3.17-0.244-3.17-2.44-6-0.556-2.13-1.05-4.28-1.5-6.44-0.809-3.86-1.69-7.07-3.5-10.6 0.0206-0.784 0.0412-1.57 0.0625-2.38-0.0822-3.45-1.43-5.62-3.06-8.62-1.16-3.47-1.76-6.93-2.4-10.5-0.586-2.42-1.48-4.26-2.6-6.47-0.356-1.45-0.667-2.91-0.938-4.38-0.612-3-1.23-4.93-2.69-7.69-1.83-3.9-1.6-6.66-1.38-10.9h-2c-0.101 0.776-0.201 1.55-0.305 2.35-0.915 4.8-2.36 9.37-3.82 14-0.639 2.07-1.28 4.15-1.91 6.22-0.326 1.06-0.653 2.12-0.989 3.22-5 16.4-9.62 32.9-14.2 49.5-0.553 1.98-1.11 3.95-1.68 5.92-2.13 7.44-4.21 14.9-6.3 22.4-0.56 2-1.12 3.99-1.68 5.99-0.816 2.9-1.63 5.8-2.44 8.69-0.251 0.888-0.502 1.78-0.761 2.69-0.983 3.52-1.87 6.92-2.43 10.5-0.459 2.52-0.459 2.52-2.46 4.52-2.51 0.175-4.91 0.232-7.41 0.195-0.73-0.00283-1.46-0.00566-2.21-0.00858-2.33-0.0112-4.67-0.0363-7-0.0617-1.58-0.01-3.16-0.0192-4.74-0.0273-3.88-0.0221-7.76-0.0566-11.6-0.0977v-3h-2c-1.28-7.41-2.26-14.5-2-22-0.66-0.33-1.32-0.66-2-1-0.391-2.97-0.663-5.89-0.875-8.88-0.814-9.95-2.17-19.8-3.72-29.6-1.06-6.82-1.88-13.6-2.41-20.5h-1c-0.111-1.06-0.221-2.12-0.335-3.21-0.418-3.98-0.84-7.96-1.26-11.9-0.182-1.71-0.362-3.42-0.541-5.14-0.911-8.71-1.89-17.4-3.42-26-0.776-4.8-1.17-9.64-1.57-14.5-0.0864-0.995-0.173-1.99-0.262-3.02-0.209-2.41-0.413-4.82-0.613-7.23h-1c-0.095-0.811-0.19-1.62-0.288-2.46-1.89-16.1-3.87-32.1-6.07-48.1-0.221-1.61-0.441-3.22-0.66-4.83-0.307-2.26-0.619-4.51-0.934-6.77-0.179-1.29-0.358-2.59-0.542-3.92-0.203-2.78-0.203-2.78-1.51-3.89-0.361-2.5-0.667-4.99-0.938-7.5-0.085-0.751-0.17-1.5-0.258-2.28-0.365-3.23-0.72-6.45-1.08-9.68-0.261-2.35-0.526-4.7-0.792-7.05-0.0792-0.735-0.158-1.47-0.24-2.23-0.124-3.43-0.124-3.43-1.7-6.27-0.691-4.18-1.1-8.41-1.56-12.6-0.136-1.23-0.273-2.45-0.413-3.71-0.913-8.6-1.42-17-1.02-25.7 15.3-0.807 30.6-1.14 46-1zm134 29 1 3zm-177 2 1 2zm173 28 1 2zm-4 28 1 3zm-159 14 1 2zm1 7 1 2zm148 52 1 3zm-140 8 1 2zm1 8 1 2zm4 29 1 2zm102 12 1 2zm-99 11 1 2zm1 7 1 3zm2 15 1 2zm106 1 1 2zm-104 13 1 3zm108 1 1 2zm9 31 1 2z" fill="#214B74"/>
<path transform="translate(1052 489)" d="m0 0c9.99 8.11 9.99 8.11 11.6 11.5 1.3 2.52 3.03 4.1 5.06 6.06 1.56 2.34 2.76 4.51 4 7 0.416 0.703 0.833 1.41 1.26 2.13 1.7 2.9 3.22 5.87 4.74 8.87 0.602 1.16 1.2 2.32 1.82 3.51 7.27 15.6 6.17 32.4 6.05 49.2-0.0255 4.39-0.0146 8.77-0.00912 13.2 0.00356 7.36-0.0207 14.7-0.0626 22.1-0.0478 8.47-0.053 16.9-0.035 25.4 0.0166 8.2 0.00457 16.4-0.0207 24.6-0.0103 3.47-0.0113 6.93-0.00435 10.4 0.00673 4.09-0.0119 8.18-0.049 12.3-0.00969 1.49-0.0112 2.97-0.00336 4.46 0.104 22.8-10.3 42.4-26 58.4-7.97 8.03-7.97 8.03-11.7 10.5 0.33 0.99 0.66 1.98 1 3 0.33 0.99 0.66 1.98 1 3 2.38 1.18 2.38 1.18 5 2 0.99 0.33 1.98 0.66 3 1 3.07 0.0298 6.12-0.0662 9.19-0.16 2.81 0.16 2.81 0.16 5.81 2.16 0.267 2.98 0.348 5.75 0.293 8.73-0.00424 0.863-0.00849 1.73-0.0129 2.61-0.0168 2.76-0.0545 5.52-0.0926 8.28-0.015 1.87-0.0287 3.74-0.041 5.61-0.0331 4.59-0.0849 9.18-0.146 13.8-8.31 3.6-19.3 3.34-27.9 0.375-1.73-0.748-3.44-1.54-5.12-2.38-0.911-0.436-1.82-0.871-2.76-1.32-11.3-5.78-25-15.2-29.2-27.7-0.692-0.0374-1.38-0.0748-2.1-0.113-27-1.82-51.4-11.5-70.3-31.3-16.6-19-16.6-19-16.6-25.6-0.66-0.33-1.32-0.66-2-1-1.97-3.06-2.2-5.4-2-9-0.66-0.33-1.32-0.66-2-1-3.19-8.64-2.27-18-1.12-27 0.295-2.1 0.295-2.1-0.879-4.03-0.155-1.87-0.25-3.75-0.316-5.62-0.0419-1.17-0.0838-2.34-0.127-3.54-0.0393-1.27-0.0786-2.53-0.119-3.83-0.0432-1.3-0.0864-2.6-0.131-3.94-0.302-9.59-0.345-19.2-0.287-28.8 0.0294-7.77-0.24-15.5-0.659-23.3-0.728-13.5-0.728-13.5-0.36-19l1-1c1.17-5.93 1-11.7 0.875-17.7-0.127-11 0.912-21.6 3.12-32.3 0.495-0.495 0.495-0.495 1-1 0.297-2.06 0.563-4.12 0.812-6.19 0.786-5.36 1.9-8.46 5.19-12.8 0.592-1.53 1.15-3.07 1.69-4.62 2.55-6.66 6.86-11.9 11.3-17.4 0.556-0.722 1.11-1.44 1.68-2.19 6.48-8.02 15.8-16.6 26.3-17.8v2c-1.65 0.66-3.3 1.32-5 2 4.07 0 5.06-0.36 8.44-2.25 28.2-14.6 60.9-9.25 85.9 9.66zm-77.3 38.6c-0.538 0.513-1.08 1.03-1.63 1.55-2.39 2.3-4.55 4.67-6.37 7.45v2c-0.99 0.33-1.98 0.66-3 1-2.46 4.27-2.16 8.22-2 13h-2c0.118 5.94 0.242 11.9 0.372 17.8 0.0434 2.02 0.0851 4.05 0.125 6.07 0.0576 2.9 0.121 5.81 0.186 8.71 0.0167 0.908 0.0334 1.82 0.0506 2.75 0.0199 0.841 0.0399 1.68 0.0604 2.55 0.0155 0.742 0.0311 1.48 0.0471 2.25 0.053 1.93 0.053 1.93 1.16 3.83h-2c-0.782 2.77-1.13 5.23-1.13 8.11-0.00315 0.797-0.0063 1.59-0.00955 2.42 0.00202 0.851 0.00405 1.7 0.00613 2.58-0.00144 1.32-0.00144 1.32-0.0029 2.67-6.79e-4 1.86 0.00116 3.71 0.00534 5.57 0.00537 2.85 3.69e-5 5.7-0.00635 8.55 6.6e-4 1.8 0.00194 3.6 0.00391 5.4-0.00202 0.857-0.00405 1.71-0.00613 2.6-0.367 3.87-0.367 3.87 1.14 7.11 0.704 6.32 1.08 12.7 1 19.1 0 3.21 0.204 5.85 1 8.94-1.65-0.66-3.3-1.32-5-2-1.35 5.79-0.976 11.3-0.75 17.2 0.0271 1.09 0.0541 2.19 0.082 3.32 0.409 11 2.58 19.7 10.7 27.4 0.851 0.917 0.851 0.917 1.72 1.85 8.65 9.18 18.5 15.3 31.2 16.5 15.5-0.748 27.7-9.52 38.1-20.4 6.45-7.98 8.31-14.9 8.2-25-0.00292-0.994-0.00584-1.99-0.00885-3.01-0.00759-2.15-0.0198-4.31-0.0361-6.46-0.0256-3.41-0.0386-6.82-0.0483-10.2-0.0267-8.47-0.0751-16.9-0.123-25.4-0.0395-7.16-0.0708-14.3-0.0911-21.5-0.0129-3.35-0.038-6.71-0.0634-10.1-0.00727-2.06-0.014-4.13-0.02-6.19-0.0103-0.929-0.0207-1.86-0.0313-2.81-8.47e-4 -5.21 0.628-9.39 2.23-14.3 0.102-3.29 0.102-3.29-0.25-6.69-0.168-1.95-0.168-1.95-0.34-3.94-0.0669-0.7-0.134-1.4-0.203-2.12-0.222-2.4-0.405-4.81-0.586-7.21-0.798-9.85-2.12-18.7-5.62-28h-2c-0.227-0.866-0.454-1.73-0.688-2.62-3.97-10.2-14.7-17-24.3-21.4-15.6-5.84-27.9-0.116-39 11.1zm-16 41 1 2zm-48 22v6h1v-6h-1zm1 45 1 3zm2 68 1 2z" fill="#204B73"/>
<path transform="translate(809,475)" d="m0 0h54v3c0.391 2.76 0.805 5.51 1.24 8.26 0.128 0.823 0.257 1.65 0.389 2.5 0.548 3.51 1.1 7.03 1.65 10.5 1.59 10.1 3.07 20.2 4.29 30.3 0.508 4.11 1.12 8.19 1.8 12.3 0.257 1.6 0.513 3.21 0.77 4.81 0.449 2.79 0.899 5.58 1.35 8.38 1.98 12.3 3.86 24.6 4.91 37.1-0.00832 3.75-0.00832 3.75 1.6 6.88 0.362 2.65 0.667 5.28 0.938 7.94 0.085 0.795 0.17 1.59 0.258 2.41 0.365 3.42 0.72 6.83 1.08 10.3 0.26 2.49 0.526 4.98 0.792 7.46 0.119 1.17 0.119 1.17 0.24 2.36 0.0918 3.59 0.0918 3.59 1.7 6.58 0.348 2.19 0.637 4.39 0.902 6.6 0.17 1.37 0.34 2.75 0.51 4.12 0.262 2.16 0.523 4.33 0.783 6.49 0.252 2.09 0.511 4.18 0.77 6.27 0.151 1.25 0.301 2.5 0.457 3.79 0.411 2.66 0.89 5.08 1.57 7.67 1.1 4.21 1.68 8.41 2.19 12.7 0.1 0.81 0.2 1.62 0.303 2.45 0.321 2.61 0.636 5.22 0.951 7.83 0.221 1.8 0.443 3.6 0.665 5.4 0.969 7.88 1.91 15.8 2.82 23.6 0.198 1.71 0.198 1.71 0.401 3.46 0.236 2.06 0.466 4.11 0.689 6.17 0.543 4.75 1.45 8.84 2.99 13.4 0.507 3.01 0.821 6.03 1.12 9.06 0.0864 0.79 0.173 1.58 0.262 2.39 0.408 3.86 0.723 7.65 0.613 11.5-9.49 0.896-18.8 1.08-28.4 0.75-1.02-0.0263-2.03-0.0527-3.08-0.0798-0.951-0.0407-1.9-0.0814-2.88-0.123-0.851-0.0325-1.7-0.0651-2.58-0.0986-2.08-0.448-2.08-0.448-4.08-3.45-0.502-2.08-0.502-2.08-0.852-4.45-0.129-0.848-0.258-1.7-0.391-2.57-0.126-0.881-0.253-1.76-0.383-2.67-0.134-0.893-0.268-1.79-0.406-2.71-0.33-2.2-0.652-4.4-0.969-6.61h-1c-0.381-1.99-0.713-3.99-1-6 0.33-0.33 0.66-0.66 1-1-5.14-0.0502-10.3-0.0861-15.4-0.11-1.74-0.00994-3.48-0.0235-5.22-0.041-11-0.108-21.5 0.329-32.4 2.15-0.459 2.58-0.917 5.17-1.38 7.75-0.136 0.768-0.273 1.54-0.414 2.33-0.989 5.59-1.91 11.2-2.78 16.8-0.43 2.12-0.43 2.12-1.43 3.12-1.35 0.0927-2.71 0.117-4.06 0.114-0.861-7.55e-5 -1.72-1.51e-4 -2.61-2.29e-4 -0.935-0.00516-1.87-0.0103-2.83-0.0156-0.953-0.00141-1.91-0.00283-2.89-0.00429-3.06-0.00562-6.11-0.0182-9.17-0.0309-2.07-0.00501-4.13-0.00958-6.2-0.0137-5.08-0.0111-10.2-0.0283-15.2-0.0488-1.19-8.48-1.19-8.48-0.695-12.7 0.0889-0.782 0.178-1.56 0.27-2.37 0.149-1.18 0.149-1.18 0.301-2.38 0.0915-0.814 0.183-1.63 0.277-2.47 0.705-5.95 0.705-5.95 1.85-7.1 0.35-2.8 0.644-5.58 0.902-8.38 0.17-1.74 0.34-3.48 0.51-5.23 0.263-2.75 0.524-5.5 0.783-8.25 0.251-2.65 0.51-5.3 0.77-7.96 0.111-1.22 0.111-1.22 0.224-2.47 0.474-4.8 1.38-9.11 2.81-13.7 0.545-3.07 0.994-6.14 1.44-9.23 0.533-2.62 1.37-4.4 2.56-6.77 0.422-2.27 0.422-2.27 0.562-4.75 0.0748-0.958 0.15-1.92 0.227-2.9 0.156-2.47 0.296-4.94 0.422-7.41 0.0379-0.702 0.0759-1.4 0.115-2.13 0.107-2.04 0.201-4.07 0.295-6.11 0.365-3.57 1.25-6.32 2.38-9.7 0.463-2.97 0.732-5.95 1-8.94 0.505-5.61 1.36-10.6 3-16.1 1.44-7.47 2.25-14.9 2.66-22.5 0.344-2.46 0.344-2.46 2.34-5.46 5.07-13 6.44-27.2 8-41h2c-0.0206-1.01-0.0412-2.02-0.0625-3.06 0.0597-3.76 0.486-7.22 1.06-10.9 0.902-6.8 1.29-13.6 1.62-20.4 0.379-3.55 0.379-3.55 1.32-6.35 1.1-3.34 1.73-6.56 2.31-10 0.215-1.28 0.429-2.55 0.65-3.87 0.22-1.33 0.439-2.67 0.658-4 0.436-2.63 0.875-5.26 1.32-7.89 0.287-1.74 0.287-1.74 0.58-3.52 0.541-2.91 0.541-2.91 1.54-5.91 1.65-0.33 3.3-0.66 5-1 0.33-1.32 0.66-2.64 1-4zm-13 43 1 2zm-5 39 1 2zm44 10v2h-2c-1.62 7.09-2.38 14-2.81 21.2-0.767 11.1-2.43 22-4.36 33-1.42 8.14-2.57 16.2-3.28 24.5-0.458 5.23-0.458 5.23-1.54 6.32-0.215 1.33-0.371 2.67-0.5 4.02-0.082 0.834-0.164 1.67-0.249 2.53-0.083 0.894-0.166 1.79-0.251 2.71-0.0869 0.901-0.174 1.8-0.263 2.73-0.666 7-1.25 14-1.74 21h-2c-0.33 2.31-0.66 4.62-1 7 2.58 0.663 4.52 1.1 7.16 0.562 3.71-0.734 7.38-0.919 11.2-1.12 0.741-0.0432 1.48-0.0864 2.24-0.131 1.81-0.105 3.63-0.206 5.44-0.307-0.99 0.99-0.99 0.99-2 2 4.62 2.22 7.77 3.38 13 3 0.144-0.763 0.289-1.53 0.438-2.31 0.562-2.69 0.562-2.69 1.56-5.69-0.276-2.01-0.602-4.01-1-6h-1c-0.482-3.46-0.96-6.92-1.44-10.4-0.135-0.966-0.269-1.93-0.408-2.93-0.856-6.22-1.58-12.4-2.15-18.7h-2c-0.0316-0.77-0.0632-1.54-0.0957-2.33-0.708-13.3-2.62-26.4-4.4-39.6-0.325-2.42-0.649-4.83-0.973-7.25-0.456-3.4-0.912-6.81-1.37-10.2-0.595-4.4-1.18-8.8-1.72-13.2-0.341-3.22-0.341-3.22-0.998-5.58-0.555-2.3-0.503-4.46-0.438-6.81h-1zm-59 65 1 3zm74 38 1 2zm-86 36 1 2zm-5 40 1 2z" fill="#214A73"/>
<path transform="translate(443 474)" d="m0 0c0.953 0.0111 1.91 0.0222 2.89 0.0336 1.08 3.78e-4 2.16 7.55e-4 3.28 0.00114 1.17 0.0258 2.33 0.0516 3.53 0.0782 1.19 0.00707 2.39 0.0141 3.62 0.0214 3.82 0.028 7.64 0.0908 11.5 0.154 2.59 0.0251 5.18 0.0479 7.76 0.0684 6.35 0.0552 12.7 0.139 19 0.244-0.33 0.99-0.66 1.98-1 3 0.246 2.65 0.246 2.65 0.812 5.56 0.257 1.46 0.257 1.46 0.52 2.94 0.361 1.89 0.728 3.77 1.13 5.65 1.51 7.09 2.33 14.2 3.1 21.4 0.247 2.34 0.498 4.67 0.754 7 0.108 1.02 0.215 2.04 0.326 3.09 0.114 2.3 0.114 2.3 1.36 3.34 0.276 1.99 0.492 3.98 0.684 5.98 0.185 1.84 0.185 1.84 0.373 3.72 0.252 2.59 0.502 5.19 0.75 7.78 0.612 6.08 1.4 11.7 3.19 17.5 0.549 3.3 0.924 6.62 1.31 9.94 0.855 6.98 1.8 13.9 2.92 20.9 0.108 0.669 0.217 1.34 0.328 2.03 0.222 1.37 0.444 2.73 0.666 4.1 1.86 11.4 3.41 22.8 4.23 34.4 0.0917 1.3 0.0917 1.3 0.185 2.63 0.0467 0.755 0.0935 1.51 0.142 2.29 0.0435 1.75 0.0435 1.75 1.22 2.72 0.275 1.8 0.492 3.62 0.684 5.43 0.123 1.12 0.246 2.25 0.373 3.41 0.25 2.36 0.5 4.72 0.75 7.09 0.643 5.87 1.44 11.6 2.66 17.4 1.18 6 1.93 12.1 2.78 18.1 0.213 1.51 0.426 3.01 0.64 4.52 1.12 7.93 2.23 15.9 3.32 23.8 0.41 2.97 0.821 5.94 1.23 8.91 0.533 3.85 1.06 7.7 1.59 11.5 0.244 1.77 0.489 3.54 0.733 5.31 0.11 0.814 0.22 1.63 0.334 2.47 0.434 3.12 0.901 6.01 1.9 9 0.0685 1.89 0.0848 3.79 0.0625 5.69-0.00902 0.994-0.018 1.99-0.0273 3.01-0.0116 0.759-0.0232 1.52-0.0352 2.3-13.1 1.23-25.9 0.759-39 0-2.5-4.6-2.42-8.83-2.66-14-0.133-3.17-0.133-3.17-2.34-6-1.56-6.87-1.56-6.87 0-10-5.12 0.12-10.2 0.244-15.4 0.372-1.73 0.0428-3.47 0.0845-5.2 0.125-11.2 0.262-22.3 0.735-33.4 1.5-1.65 10.2-3.3 20.5-5 31h-44c-1.13-7.88-1.13-7.88-0.695-11.1 0.0889-0.695 0.178-1.39 0.27-2.11 0.0993-0.7 0.199-1.4 0.301-2.12 0.0915-0.723 0.183-1.45 0.277-2.19 0.705-5.29 0.705-5.29 1.85-6.43 0.288-1.94 0.516-3.89 0.719-5.84 0.128-1.21 0.255-2.42 0.387-3.67 0.13-1.28 0.26-2.55 0.395-3.87 0.13-1.24 0.26-2.48 0.395-3.75 0.691-6.62 1.33-13.2 1.84-19.9 0.264-1.99 0.264-1.99 1.26-2.99 0.346-1.94 0.636-3.88 0.902-5.83 0.252-1.79 0.252-1.79 0.51-3.61 0.348-2.52 0.694-5.05 1.04-7.57 0.17-1.2 0.339-2.4 0.514-3.63 0.151-1.1 0.301-2.2 0.457-3.33 0.555-2.91 1.47-5.3 2.58-8.03 0.412-2.27 0.412-2.27 0.562-4.59 0.11-1.29 0.11-1.29 0.222-2.61 0.071-0.905 0.142-1.81 0.215-2.74 0.166-1.89 0.334-3.79 0.504-5.68 0.124-1.38 0.124-1.38 0.25-2.79 0.712-7.52 1.73-14.9 3.68-22.2 1.46-5.52 2.39-11.1 3.25-16.7 0.131-0.848 0.263-1.7 0.398-2.57 0.547-3.73 0.913-7.19 0.871-11 0.0435-3.18 0.493-4.46 2.04-7.14 0.356-1.43 0.668-2.87 0.938-4.31 0.611-3 1.26-5.09 2.62-7.88 2.13-4.54 1.95-9.48 2.13-14.4 0.314-3.47 1.21-6.11 2.31-9.4 2.73-11.2 3.81-22.4 4.66-33.8 0.603-8.03 1.49-15.7 3.63-23.5 1.24-4.71 1.86-9.52 2.53-14.3 0.702-4.62 1.83-8.22 4.18-12.3 0.66 0.66 1.32 1.32 2 2 0.386-0.813 0.771-1.63 1.17-2.46 1.83-2.54 1.83-2.54 4.24-3.14zm-15.4 39.6 1 2zm-1 13 1 2zm39 40c-3.81 5.85-3.7 12-4.06 18.8-0.392 6.85-0.804 13.4-2.46 20.1-0.795 3.42-1.16 6.89-1.54 10.4-0.817 7.22-0.817 7.22-1.44 9.65-0.516 2.12-0.75 4.12-0.927 6.29-0.0715 0.827-0.143 1.65-0.217 2.5-0.0755 0.887-0.151 1.77-0.229 2.69-0.988 10.9-2.42 21.7-4.13 32.6-0.131 0.838-0.261 1.68-0.396 2.54-0.377 2.39-0.768 4.77-1.17 7.15-0.115 0.713-0.229 1.43-0.347 2.16-0.856 4.92-0.856 4.92-3.09 7.15-0.167 3.08-0.167 3.08 0 6 3.52 0.1 6.57-0.281 10-1 5.72-0.858 11.2-1.12 17-1-0.33 0.99-0.66 1.98-1 3 1.8 2.23 1.8 2.23 4.31 2.23 0.887-0.0142 1.77-0.0284 2.69-0.043 0.887-0.00645 1.77-0.0129 2.69-0.0195 2.34-0.0221 2.34-0.0221 4.31-1.17-0.495-4.45-0.495-4.45-1-9h-1c-0.573-3.91-1.14-7.83-1.71-11.7-0.288-1.98-0.578-3.97-0.869-5.95-0.18-1.25-0.361-2.5-0.547-3.79-0.251-1.73-0.251-1.73-0.508-3.49-0.367-3.02-0.367-3.02-0.367-7.02h-2c-1-12-2-24-3-36h-1c-0.503-4.1-1-8.21-1.5-12.3-0.143-1.17-0.286-2.33-0.434-3.54-0.135-1.12-0.271-2.24-0.41-3.39-0.126-1.03-0.251-2.06-0.381-3.13-0.275-2.64-0.275-2.64-0.275-5.64h-2c0.0232-0.594 0.0464-1.19 0.0703-1.8 0.174-8-1.08-15.5-3.07-23.2zm12 83 1 4zm3 17 1 2zm-81 14 1 4z" fill="#214A73"/>
<path transform="translate(1161,528)" d="m0 0v3c0.0599 1.37 0.128 2.73 0.201 4.1 0.68 13.1 1.06 26.2 1.3 39.4 0.0406 2.13 0.0814 4.27 0.122 6.4 0.108 5.67 0.212 11.3 0.314 17 0.0639 3.53 0.129 7.06 0.194 10.6 0.565 30.7 1.1 61.5 1.52 92.2 0.0352 2.49 0.0725 4.99 0.11 7.48 0.0588 3.89 0.111 7.78 0.159 11.7 0.0263 2.04 0.0581 4.09 0.0903 6.13 0.0842 7.62-0.196 15.1-0.791 22.7-0.204 3.08-0.259 6.11-0.221 9.2 0.0575 4.79-0.377 9.38-1 14.1-14 2.37-27.9 2.21-42 2-1.84-22.7-1.84-22.7 1-27 0.311-2.84 0.511-5.59 0.619-8.43 0.0377-0.845 0.0753-1.69 0.114-2.56 0.383-9.37 0.393-18.7 0.365-28.1-0.00193-1.93-0.00339-3.86-0.00443-5.79-0.00313-4.11-0.00935-8.22-0.0181-12.3-0.0136-6.5-0.0194-13-0.0241-19.5-0.011-13.8-0.0306-27.5-0.051-41.3-0.0221-14.9-0.0426-29.8-0.0534-44.8-0.00498-6.46-0.0148-12.9-0.0284-19.4-0.00744-4-0.0108-8.01-0.013-12-0.00188-1.86-0.00549-3.72-0.0109-5.58-0.00718-2.53-0.00826-5.06-0.00778-7.59-0.00539-1.11-0.00539-1.11-0.0109-2.25 0.00627-3.09 0.139-5.47 1.12-8.43 12.4-0.826 24.6-1.12 37-1z" fill="#214971"/>
<path transform="translate(1018,473)" d="m0 0v1h-31c0.495 0.99 0.495 0.99 1 2 0.99 0.33 1.98 0.66 3 1v2h6c-0.33 0.66-0.66 1.32-1 2 1.65 0.33 3.3 0.66 5 1v1c-2.31 0.66-4.62 1.32-7 2 0.495 1.98 0.495 1.98 1 4 1.98 0.495 1.98 0.495 4 1-0.278 0.897-0.278 0.897-0.562 1.81-0.658 2.35-0.658 2.35 0.562 5.19 1.22-0.0206 2.43-0.0412 3.69-0.0625 5.97 0.0105 12.9 0.683 17.3 5.06-1.32 0.33-2.64 0.66-4 1 6.1 0.221 11.2 0.0117 17-2v2h2v2h-5c0.33 0.99 0.66 1.98 1 3-0.495 0.99-0.495 0.99-1 2-0.782-0.0116-1.56-0.0232-2.37-0.0352-1.01-0.00902-2.02-0.018-3.07-0.0273-1.01-0.0116-2.02-0.0232-3.06-0.0352-2.44-0.188-2.44-0.188-3.5 1.1-2.34-0.287-4.67-0.619-7-1v-4c-2.71-1.35-5.01-1.07-8-1l1 6h-5c-0.0425 0.615-0.0851 1.23-0.129 1.86-0.871 2.14-0.871 2.14-3.46 3.3-1.1 0.336-2.21 0.673-3.35 1.02-6.38 2.24-10.4 5.26-15.1 10-1.93 1.79-1.93 1.79-3.93 1.79-0.247 0.536-0.495 1.07-0.75 1.62-1.84 3.5-3.77 7.11-6.8 9.7-2 2.32-2.17 4.36-2.63 7.36-0.238 1.49-0.238 1.49-0.48 3.01-0.11 0.759-0.219 1.52-0.332 2.3h-2c0.153 1.11 0.307 2.22 0.465 3.37 0.874 7.86 0.903 15.8 1.1 23.7 0.0433 1.65 0.0869 3.29 0.131 4.94 0.106 4 0.208 8 0.307 12h-2c-0.0253 6.25-0.0428 12.5-0.0549 18.7-0.00504 2.13-0.0119 4.25-0.0205 6.38-0.0121 3.05-0.0178 6.1-0.0222 9.15-0.00516 0.957-0.0103 1.91-0.0156 2.9-7.55e-5 0.881-1.51e-4 1.76-2.29e-4 2.67-0.00222 0.779-0.00444 1.56-0.00673 2.36-0.0755 1.81-0.0755 1.81 1.12 2.79 1.1 9.3 1.13 18.6 1 28-1.32-0.33-2.64-0.66-4-1-0.897 3.07-1.12 5.79-1.1 8.98 0.00322 0.935 0.00645 1.87 0.00977 2.83 0.00838 0.968 0.0168 1.94 0.0254 2.93 0.00451 0.984 0.00902 1.97 0.0137 2.98 0.0118 2.42 0.0282 4.85 0.0488 7.27-1.32 0.33-2.64 0.66-4 1 0.0232 0.603 0.0464 1.21 0.0703 1.83 0.018 0.799 0.0361 1.6 0.0547 2.42 0.0232 0.789 0.0464 1.58 0.0703 2.39-0.213 2.57-1.04 4.09-2.2 6.36 0.33 0.66 0.66 1.32 1 2-0.908-0.206-1.82-0.413-2.75-0.625-3.36-0.388-4.49-0.179-7.25 1.62-1.25-6.62-1.25-6.62 1-10-0.33-0.66-0.66-1.32-1-2-0.02-1.35 0.00761-2.71 0.0625-4.06 0.0549-4.89-0.829-9.22-2.06-13.9-0.679-2.66-1.35-5.33-2-8-0.211-0.829-0.423-1.66-0.641-2.51-1.2-5.15-1.71-8.52 0.641-13.5h3c0.778-4.41 0.891-7.66 0-12 0.438-3.31 0.438-3.31 1-6h-2c-1.07-3.2-0.948-4.89-0.562-8.19 0.102-0.901 0.204-1.8 0.309-2.73 0.0838-0.687 0.168-1.37 0.254-2.08h-4c-1.4-2.8-1.18-4.89-1-8l2-6c-0.33-0.99-0.66-1.98-1-3h-2v2h-2v-4h-5c-0.625-2.31-0.625-2.31-1-5 2-3 2-3 3.95-3.51 0.719-0.058 1.44-0.116 2.18-0.176 1.28-0.103 2.56-0.206 3.88-0.312 0.11-0.638 0.219-1.28 0.332-1.93 0.159-0.826 0.317-1.65 0.48-2.5 0.151-0.824 0.302-1.65 0.457-2.5 0.241-0.682 0.482-1.36 0.73-2.07 1.49-0.495 1.49-0.495 3-1-0.33-0.99-0.66-1.98-1-3 0.33-0.743 0.66-1.49 1-2.25 1.3-3.58 0.674-6.04 0-9.75v-4l-1.44-1.44c-2.89-2.89-2.56-6.32-2.62-10.2 0.0206-1.09 0.0412-2.19 0.0625-3.31v-2h-3v2c-1.49 0.495-1.49 0.495-3 1v3c0.66 0.33 1.32 0.66 2 1 0.625 2.06 0.625 2.06 1 4h-5c-0.33 1.32-0.66 2.64-1 4h2c0.694 1.66 1.35 3.33 2 5 0.287 0.713 0.575 1.43 0.871 2.16 2.31 6.15 2.31 6.15 1.32 9.9-0.392 0.639-0.784 1.28-1.19 1.94h-2v2c-3.12-0.486-6-0.999-9-2-0.33 2.64-0.66 5.28-1 8h-1c-0.33 1.65-0.66 3.3-1 5h-2c0.495 5.94 0.495 5.94 1 12h-2c-0.66-1.98-1.32-3.96-2-6-0.99 0.99-0.99 0.99-2 2-2.11-3.45-2.24-6.18-2.19-10.2 0.00645-1.07 0.0129-2.13 0.0195-3.23 0.168-2.58 0.168-2.58 1.17-3.58 1.17-5.93 1-11.7 0.875-17.7-0.127-11 0.912-21.6 3.12-32.3l1-1c0.297-2.06 0.563-4.12 0.812-6.19 0.786-5.36 1.9-8.46 5.19-12.8 0.592-1.53 1.15-3.07 1.69-4.62 2.55-6.66 6.86-11.9 11.3-17.4 0.556-0.722 1.11-1.44 1.68-2.19 6.48-8.02 15.8-16.6 26.3-17.8v2c-1.65 0.66-3.3 1.32-5 2 4.07 0 5.06-0.36 8.44-2.25 16.3-8.42 33.8-10.5 51.6-6.75zm-59 96 1 2zm-48 22v6h1v-6h-1z" fill="#214971"/>
<path transform="translate(1074,553)" d="m0 0c2 1.31 2 1.31 4 4 0.361 3.69 0.229 7.31 0 11h-1c-0.33 1.98-0.66 3.96-1 6h-3c-0.33 2.64-0.66 5.28-1 8 1.98 0.495 1.98 0.495 4 1v4c0.33 0.66 0.66 1.32 1 2-1.32 0.33-2.64 0.66-4 1v2c0.66 0.33 1.32 0.66 2 1-0.66 1.32-1.32 2.64-2 4-0.33-0.66-0.66-1.32-1-2-2.51 1.26-2.87 2.5-4 5v-4h-2v10h8c1.96 3.92 1.01 8.9 0.938 13.2-0.0414 3.66-0.0414 3.66 0.582 6.69 0.657 4.25 0.411 8.32 0.168 12.6-0.0354 0.829-0.0709 1.66-0.107 2.51-0.248 4.66-0.837 8.61-2.58 13 0.66 0.66 1.32 1.32 2 2 0.227 2.98 0.227 2.98 0.195 6.76-0.00283 0.663-0.00566 1.33-0.00858 2.01-0.0112 2.12-0.0363 4.24-0.0617 6.36-0.01 1.44-0.0192 2.87-0.0273 4.31-0.0221 3.52-0.0566 7.04-0.0977 10.6h2c1.33 9.41 1.33 9.41 0 14 0.578 0.0825 1.15 0.165 1.75 0.25 3.16 1.05 4.42 1.93 6.25 4.75-0.485 6.15-2.97 11.9-5.62 17.4-0.535 1.11-0.535 1.11-1.08 2.24-6.51 13.1-17 26.2-29.3 34.4 0.33 0.99 0.66 1.98 1 3 0.33 0.99 0.66 1.98 1 3 2.38 1.18 2.38 1.18 5 2 0.99 0.33 1.98 0.66 3 1 3.07 0.0298 6.12-0.0662 9.19-0.16 2.81 0.16 2.81 0.16 5.81 2.16 0.267 2.98 0.348 5.75 0.293 8.73-0.00424 0.863-0.00849 1.73-0.0129 2.61-0.0168 2.76-0.0545 5.52-0.0926 8.28-0.015 1.87-0.0287 3.74-0.041 5.61-0.0331 4.59-0.0849 9.18-0.146 13.8-8.31 3.6-19.3 3.34-27.9 0.375-1.73-0.748-3.44-1.54-5.12-2.38-1.37-0.654-1.37-0.654-2.76-1.32-11.3-5.78-25-15.2-29.2-27.7-0.784 0.0619-1.57 0.124-2.38 0.188-0.866-0.0619-1.73-0.124-2.62-0.188-2-3-2-3-2-6-3.44-2.3-5.94-2.54-10-3v-2c-0.94-0.147-0.94-0.147-1.9-0.297-0.817-0.15-1.63-0.299-2.48-0.453-0.812-0.139-1.62-0.278-2.46-0.422-2.79-1.07-2.9-2.23-4.16-4.83-4.16-0.805-7.77-1-12-1 0.165-1.22 0.33-2.43 0.5-3.69 0.393-3.13 0.593-6.15 0.5-9.31v-10c3.78 1.71 4.5 2.77 6.06 6.62 1.11 4.01 1.08 7.23 0.938 11.4 1.32 0.33 2.64 0.66 4 1 1.43-2.35 2.09-3.48 1.62-6.25-0.206-0.578-0.413-1.15-0.625-1.75h4v10c0.895-0.0232 1.79-0.0464 2.71-0.0703 7.38-0.11 14.1 0.224 21.3 2.07 0.33-0.99 0.66-1.98 1-3 2.5 1.25 2.5 1.25 5 3v4h5v3h-2v2c5.17-0.406 5.17-0.406 10-2v2c0.99-0.33 1.98-0.66 3-1v-3c-1.32-0.66-2.64-1.32-4-2 0.33-1.65 0.66-3.3 1-5 0.99-0.33 1.98-0.66 3-1v-7h-2v-2h-2c0.66 1.65 1.32 3.3 2 5h-3c-2.01 0.631-4.01 1.29-6 2-0.625-2.38-0.625-2.38-1-5 0.66-0.66 1.32-1.32 2-2h3v-5h2c0.33-0.99 0.66-1.98 1-3 0.33 0.99 0.66 1.98 1 3 0.268-0.804 0.536-1.61 0.812-2.44 0.392-0.846 0.784-1.69 1.19-2.56 3-1 3-1 6 0v-3h-9c-0.33-0.66-0.66-1.32-1-2 0.675 0.0464 1.35 0.0928 2.05 0.141 5.65 0.404 5.65 0.404 10.5-2.14 0.495-0.66 0.99-1.32 1.5-2h2c0.454-1.09 0.908-2.19 1.38-3.31 1.04-2.51 2.09-4.38 3.62-6.69v-2h6c0.33-4.62 0.66-9.24 1-14 0.99-0.33 1.98-0.66 3-1-0.99-0.33-1.98-0.66-3-1v-2h3v-7h6c-1.24-5.76-1.24-5.76-5-10-0.99-0.33-1.98-0.66-3-1-0.773-4.79-1.13-9.39-1.13-14.2-0.00198-1.02-0.00198-1.02-4e-3 -2.05-0.00191-2.19 0.00441-4.39 0.0118-6.58 0.00133-1.12 0.00133-1.12 0.00269-2.27 0.0165-11.9 0.321-23.9 0.904-35.8 0.21-4.36 0.26-8.69 0.219-13.1h2c0.66-0.99 1.32-1.98 2-3-0.33-0.99-0.66-1.98-1-3-1.48 0.495-1.48 0.495-3 1 0.66-1.32 1.32-2.64 2-4v2h2c-0.0619-1.09-0.124-2.19-0.188-3.31 0.214-4.2 0.501-4 3.19-6.69 0.25-3.63 0.25-3.63 0-7-0.33 1.32-0.66 2.64-1 4-2.92-2.25-4.67-3.69-5.59-7.31-0.564-5.07-0.388-9.69 0.59-14.7 0.99 1.49 0.99 1.49 2 3h2v2c0.66 0.33 1.32 0.66 2 1-0.495 0.495-0.495 0.495-1 1 0.66 0.33 1.32 0.66 2 1v-6c1.32-0.33 2.64-0.66 4-1v-2h2c0.495 0.495 0.495 0.495 1 1 0.934-3.01 1.04-3.87 0-7 1.44-2.69 1.44-2.69 3-5z" fill="#214971"/>
<path transform="translate(445,559)" d="m0 0c1.94 0.812 1.94 0.812 4 2 0.495 1.49 0.495 1.49 1 3h-2c0.495 1.49 0.495 1.49 1 3-0.438 2.19-0.438 2.19-1 4-1.65 0.33-3.3 0.66-5 1v5c0.66 0.33 1.32 0.66 2 1-0.66 0.99-1.32 1.98-2 3h-2v5c-0.66-0.33-1.32-0.66-2-1-0.33 0.66-0.66 1.32-1 2h3c0.382 1.66 0.714 3.32 1 5-0.33 0.33-0.66 0.66-1 1-0.0409 2.33-0.0424 4.67 0 7h3v2c-0.33 0.33-0.66 0.66-1 1 0.428 2.21 0.991 3.98 2 6-1.62 1.71-3.29 3.37-5 5h-2c0.588 1.05 0.588 1.05 1.19 2.12 0.812 2.88 0.812 2.88-0.562 6.19-0.536 0.887-1.07 1.77-1.62 2.69h-2c0.33 0.99 0.66 1.98 1 3 0.99 0.495 0.99 0.495 2 1-0.33 1.98-0.66 3.96-1 6 1.32 0.33 2.64 0.66 4 1-0.99 0.66-1.98 1.32-3 2 0.0301 3.39 0.355 6.61 0.762 9.97 0.342 3.49 0.342 5.79-1.04 9.04-0.567 0.656-1.13 1.31-1.72 1.99h-3v4h-2c0.217 0.545 0.433 1.09 0.656 1.65 2.11 5.71 2.63 10.3 2.34 16.3-0.99 0.33-1.98 0.66-3 1-1.72 3.5-1.72 3.5-3 7h2c0.67 1.96 1.34 3.92 2 5.88 0.371 1.09 0.743 2.18 1.12 3.3 0.875 2.82 0.875 2.82 0.875 4.82h-2c0.33 0.99 0.66 1.98 1 3-0.99 0.99-1.98 1.98-3 3l1.56 3.19c1.44 3.31 1.57 5.3 0.438 8.81v1c-1.24 0.227-2.48 0.454-3.75 0.688-4.23 1.02-5.72 2.75-8.25 6.31h-3c-0.33 2.31-0.66 4.62-1 7-0.66-0.33-1.32-0.66-2-1-3.09 2.53-3.91 5.22-5 9h-6c-0.124-1.09-0.248-2.19-0.375-3.31-0.38-3.76-0.38-3.76-2.62-6.69 0.327-1.67 0.662-3.33 1-5-0.0378-4.15-0.393-8.29-0.684-12.4-0.453-7.32-0.271-13.7 2.68-20.6 0.348-1.66 0.684-3.33 1-5 0.495-0.99 0.495-0.99 1-2 0.363-1.99 0.692-4 1-6 0.889-5.78 0.889-5.78 2-8 0.14-1.46 0.225-2.93 0.281-4.39 0.0374-0.873 0.0748-1.75 0.113-2.65 0.0348-0.915 0.0696-1.83 0.105-2.77 0.0693-1.8 0.142-3.6 0.219-5.39 0.0303-0.799 0.0606-1.6 0.0918-2.42 0.201-2.52 0.649-4.91 1.19-7.37h1v-7c-0.99-0.33-1.98-0.66-3-1-3.4-6.81 0.304-17.2 1.58-24.2 0.762-4.35 1.42-8.38 1.42-12.8 0-3.11 0.48-4.37 2-7 0.356-1.43 0.668-2.87 0.938-4.31 0.613-2.97 1.29-5.2 2.56-8 1.75-4.3 2.31-8.33 2.88-12.9 0.669-2.96 1.64-4.51 3.62-6.77 1.11 3.33 0.845 5.62 0 9h2v-8c3.89-0.0749 7.24 0.0603 11 1 0.99-0.33 1.98-0.66 3-1 0.33-1.65 0.66-3.3 1-5 1.65-0.33 3.3-0.66 5-1v-2z" fill="#214B74"/>
<path transform="translate(798,563)" d="m0 0h8c1.87 5.98 3 11.7 3 18 0.0116 1.28 0.0232 2.55 0.0352 3.87 0.00929 1.52 0.0184 3.04 0.0273 4.57 0.00838 0.764 0.0168 1.53 0.0254 2.31 0.00322 0.741 0.00645 1.48 0.00977 2.24 0.00524 0.672 0.0105 1.34 0.0159 2.04-0.121 2.09-0.545 3.95-1.11 5.97 1.32 0.33 2.64 0.66 4 1 0.0271 1.6 0.0464 3.21 0.0625 4.81 0.0116 0.893 0.0232 1.79 0.0352 2.71-0.0977 2.48-0.0977 2.48-1.1 5.48h-2v-6c-0.124 1.3-0.247 2.6-0.375 3.94-0.211 2.21-0.211 2.21-0.625 4.06-0.99 0.495-0.99 0.495-2 1-0.33-0.33-0.66-0.66-1-1-2.26 3.56-2.07 6.13-1.62 10.2 0.111 1.08 0.222 2.16 0.336 3.27 0.143 1.23 0.143 1.23 0.289 2.48h2l1 10c-1.98 0.99-1.98 0.99-4 2-0.594 3.01-0.594 3.01-0.562 6.44-0.0664 3.5-0.0664 3.5-0.438 6.56-0.779 0.744-0.779 0.744-1.57 1.5-0.471 0.494-0.941 0.987-1.43 1.5 0.0388 3.12 0.0388 3.12 0.75 6.5 0.302 1.72 0.302 1.72 0.609 3.47 0.586 3.06 0.586 3.06 1.64 6.03-0.804 0.124-1.61 0.247-2.44 0.375-1.27 0.309-1.27 0.309-2.56 0.625-0.33 0.66-0.66 1.32-1 2h-2c1.26 2.51 2.5 2.87 5 4v7c-0.66 0.33-1.32 0.66-2 1 0.156 1.09 0.312 2.17 0.473 3.29 0.197 1.45 0.394 2.89 0.59 4.34 0.104 0.713 0.208 1.43 0.314 2.16 0.577 4.34 0.519 7.88-0.377 12.2-0.0376 2.33-0.0467 4.67 0 7h-2c-0.33 0.66-0.66 1.32-1 2-0.454 0.433-0.908 0.866-1.38 1.31-1.8 1.7-1.8 1.7-3 4.38-0.536 0.763-1.07 1.53-1.62 2.31-2.69 0.312-2.69 0.312-5 0v2c-2.31 0.99-4.62 1.98-7 3-0.049 0.626-0.098 1.25-0.148 1.9-0.0748 0.817-0.15 1.63-0.227 2.48-0.104 1.22-0.104 1.22-0.211 2.46-0.414 2.16-0.414 2.16-2.41 4.16-3.62-0.375-3.62-0.375-7-1 0.33-2.31 0.66-4.62 1-7-0.66-0.33-1.32-0.66-2-1 0.66-0.33 1.32-0.66 2-1v-1h-1c-2-14-2-14 1-20-0.0412-1.18-0.0825-2.35-0.125-3.56-0.0462-3.22 0.399-5.67 1.5-8.69 3.35-9.2 3.97-19 4.62-28.8-0.66-0.33-1.32-0.66-2-1-1.22-3.65-1.18-7.02-1.19-10.8-0.0122-0.699-0.0245-1.4-0.0371-2.12-0.0126-4.48 0.778-7.87 2.22-12.1 0.465-2.97 0.732-5.95 1-8.94 0.505-5.61 1.36-10.6 3-16.1 1.44-7.47 2.25-14.9 2.66-22.5 0.344-2.46 0.344-2.46 2.34-5.46 0.662-2.05 0.662-2.05 1.12-4.19 0.433-1.89 0.433-1.89 0.875-3.81h2c0.95 3.7 0.95 6.3 0 10 3.63-2.42 3.79-3.94 5-8 0.33-0.33 0.66-0.66 1-1 0.202-1.45 0.347-2.91 0.465-4.37 0.117-1.33 0.117-1.33 0.236-2.68 0.157-1.87 0.311-3.75 0.461-5.62 0.0793-0.888 0.159-1.78 0.24-2.69 0.067-0.816 0.134-1.63 0.203-2.47 0.395-2.16 0.395-2.16 2.39-5.16h2v-4zm-22 69 1 3z" fill="#214B74"/>
<path transform="translate(1127,536)" d="m0 0c2.47 0.99 2.47 0.99 5 2 0.33 3.63 0.66 7.26 1 11 1.98 0.66 3.96 1.32 6 2-0.33 2.31-0.66 4.62-1 7h-3c0.33 3.3 0.66 6.6 1 10 3 0.75 5.97 1.41 9 2-0.33 2.31-0.66 4.62-1 7h2v5c-3.3-0.66-6.6-1.32-10-2 0.33 5.61 0.66 11.2 1 17-1.32 0.66-2.64 1.32-4 2 0.309 0.763 0.619 1.53 0.938 2.31 0.741 1.88 1.42 3.77 2.06 5.69h1c-0.0715 0.624-0.143 1.25-0.217 1.89-0.825 7.95-0.9 15.8-0.846 23.8 0.00451 1.29 0.00902 2.57 0.0137 3.9 0.0117 3.14 0.028 6.28 0.0488 9.42 0.99 0.33 1.98 0.66 3 1-0.0722 0.71-0.144 1.42-0.219 2.15-0.0928 0.919-0.186 1.84-0.281 2.79-0.139 1.37-0.139 1.37-0.281 2.78-0.162 1.64-0.162 1.64-0.219 3.29v9h2v5h-2v2.88 5.12c0.33 0.33 0.66 0.66 1 1 0.136 3.66 0.165 6.51-1 10h2v14c1.32 0.33 2.64 0.66 4 1v2h4c0.188 2.31 0.188 2.31 0 5-1.5 1.69-1.5 1.69-3 3v2c-0.639-0.186-1.28-0.371-1.94-0.562-0.681-0.144-1.36-0.289-2.06-0.438-0.33 0.33-0.66 0.66-1 1h-2v12h-2v2c2.31 0.33 4.62 0.66 7 1v5c-2.47 0.99-2.47 0.99-5 2 0.506 2.17 1 4 2 6-0.639 0.227-1.28 0.454-1.94 0.688-2.33 1.17-2.33 1.17-2.81 3.94-0.0825 0.784-0.165 1.57-0.25 2.38h-6c-0.99-3.63-1.98-7.26-3-11-0.33 2.64-0.66 5.28-1 8h-1c-0.865-12.2-1.15-24.4-1.15-36.7-3e-3 -1.91-0.0064-3.82-0.0102-5.73-0.00874-5.13-0.0112-10.3-0.0118-15.4-7.15e-4 -3.21-0.00286-6.42-0.0055-9.63-0.00921-11.2-0.0133-22.4-0.0125-33.6 6.04e-4 -10.4-0.01-20.9-0.0257-31.3-0.013-8.98-0.0184-18-0.0178-26.9 2.55e-4 -5.36-0.00261-10.7-0.0132-16.1-0.00964-5.02-0.00979-10-0.00248-15.1 0.00105-1.85-0.00134-3.69-0.00736-5.54-0.00766-2.51-0.00312-5.02 0.00463-7.53-0.00514-0.737-0.0103-1.47-0.0156-2.23 0.0346-5.03 0.0346-5.03 2.26-7.26 0.66-0.33 1.32-0.66 2-1z" fill="#214B74"/>
<path transform="translate(637,269)" d="m0 0c7.23 0.682 14.1 2.03 21.2 3.71 4.72 1.06 8.04 1.2 12.8 0.285 4.82 2.99 6.71 6.01 9.01 11.1 1.49 2.87 3.61 4.77 5.99 6.92 4.13 4.01 7.93 8.27 11.7 12.6 4.69 4.94 8.43 7.04 15.1 8.34 5.73 1.23 11.3 2.64 16.9 4.44 6.59 2.12 13.2 4.08 19.9 5.94 0.928 0.267 1.86 0.533 2.81 0.808 7.87 2.17 14 2.18 22.1 0.379 8.19-1.74 14.6-2.17 22.6 0.5-5 5.14-8.23 8.12-15.3 9.57-1.25 0.257-2.49 0.513-3.78 0.777-0.648 0.128-1.3 0.256-1.96 0.387-1.95 0.385-3.89 0.788-5.83 1.19-20.8 4.21-20.8 4.21-29.6 0.699-5.1-1.92-9.69-3.08-15.1-3.38-3.96-0.424-7.6-1.83-11.3-3.25v-2c-1.21-0.0909-1.21-0.0909-2.45-0.184-1.07-0.0838-2.14-0.168-3.24-0.254-1.06-0.0812-2.11-0.162-3.2-0.246-2.76-0.281-5.4-0.718-8.11-1.32v-2c-1.24-0.0412-2.48-0.0825-3.75-0.125-3.71-0.445-4.06-0.633-6.56-3.75-0.557-1.03-1.11-2.06-1.69-3.12-0.557-0.454-1.11-0.908-1.69-1.38-1.91-2.36-1.87-4.72-2.1-7.69-0.165-2.15-0.165-2.15-1.21-4.94-0.99-0.33-1.98-0.66-3-1-0.495-1.03-0.99-2.06-1.5-3.12-2.47-4.74-6.61-6.73-11.1-9.3-2.36-1.58-2.36-1.58-3.36-4.58-1.99-0.693-3.99-1.36-6-2-1.56-1.44-1.56-1.44-3-3-1.66-1.01-3.33-2.01-5-3-0.825-0.681-1.65-1.36-2.5-2.06-2.45-1.9-4.58-2.94-7.5-3.94v-2z" fill="#EC8F1E"/>
<path transform="translate(826,231)" d="m0 0c4.22 0.404 8.44 0.814 12.7 1.23 1.43 0.14 2.87 0.279 4.3 0.416 2.06 0.198 4.13 0.4 6.19 0.603 1.24 0.12 2.48 0.241 3.76 0.365 3.09 0.389 3.09 0.389 6.09 1.39v-2c4.91 1.76 8.82 4.48 13.1 7.44 10.7 5.72 29.6 3.24 40.9 0.559 1.32-0.426 2.63-0.865 3.95-1.32 11.1-3.76 19.6-3.79 31.1-1.68 0.594 1.82 0.594 1.82 1 4-3.73 7.14-9.71 11.8-17 15-2.34 0.615-4.69 1.16-7.06 1.62-1.19 0.24-2.37 0.48-3.6 0.727-2.05 0.398-4.1 0.789-6.16 1.17-2.2 0.368-2.2 0.368-3.99 1.54-4.57 1.96-9.5 1.15-14.2-0.0625-1.15 0.0206-2.31 0.0412-3.5 0.0625-3.5-0.0625-3.5-0.0625-5.41-1.05-3.14-1.52-6.21-1.31-9.66-1.38-2.44-0.637-2.44-0.637-4.35-3.11-1.9-2.79-1.9-2.79-5.15-3.35-1.12-0.101-2.23-0.201-3.38-0.305-4.72-0.448-7.65-1.18-11.6-3.88-0.741-0.495-1.48-0.99-2.25-1.5-1.08-0.743-1.08-0.743-2.19-1.5-3.43-2.3-6.82-4.27-10.6-6v-2c-1.08-0.155-1.08-0.155-2.19-0.312-3.07-0.751-5.15-2.01-7.81-3.69-0.99-0.33-1.98-0.66-3-1v-2z" fill="#EC8F1E"/>
<path transform="translate(441,475)" d="m0 0h54v2c-4.45 0.495-4.45 0.495-9 1 0.351 0.784 0.701 1.57 1.06 2.38 0.309 0.866 0.619 1.73 0.938 2.62-0.33 0.66-0.66 1.32-1 2 0.99-0.33 1.98-0.66 3-1 0.99 0.66 1.98 1.32 3 2 0.395 4.35 0.453 6.32-2 10 0.495 1.49 0.495 1.49 1 3 2.5 1.22 2.5 1.22 5 2-0.255 1.63-0.53 3.25-0.812 4.88-0.151 0.905-0.302 1.81-0.457 2.74-0.73 2.38-0.73 2.38-3.73 4.38-0.5 2.96-0.5 2.96 0 6 0.499 0.441 0.998 0.882 1.51 1.34 2.15 2.4 1.79 4.19 1.68 7.35-0.0406 1.49-0.0406 1.49-0.082 3.01-0.0348 0.759-0.0696 1.52-0.105 2.3h3c0.338 2.23 0.67 4.46 1 6.69 0.186 1.24 0.371 2.48 0.562 3.76 0.359 2.91 0.527 5.63 0.438 8.55l-2-2c0.0232 0.687 0.0464 1.37 0.0703 2.08 0.018 0.901 0.0361 1.8 0.0547 2.73 0.0232 0.893 0.0464 1.79 0.0703 2.71-0.195 2.48-0.195 2.48-2.2 5.48-3.26 0.293-3.26 0.293-7.12 0.188-1.92-0.0406-1.92-0.0406-3.88-0.082-0.987-0.0348-1.97-0.0696-2.99-0.105 0.0116-0.987 0.0232-1.97 0.0352-2.99 0.00902-1.28 0.018-2.56 0.0273-3.88 0.0116-1.28 0.0232-2.55 0.0352-3.87 0.134-3.14 0.134-3.14-1.1-5.26-0.0713-3.48 0.00331-6.94 0.0625-10.4-0.0578-3.31-0.426-6.34-1.06-9.58h2v-5c-0.619-0.0412-1.24-0.0825-1.88-0.125-2.12-0.875-2.12-0.875-3.38-3.5-0.792-3.57-0.896-6.73-0.75-10.4h-3c0.186-0.619 0.371-1.24 0.562-1.88 0.674-2.17 0.674-2.17-0.562-4.12 0.33-0.66 0.66-1.32 1-2-1.32-0.33-2.64-0.66-4-1-0.33-1.32-0.66-2.64-1-4 1.32-0.33 2.64-0.66 4-1-0.626-2.05-0.626-2.05-2-4-2.42-0.702-2.42-0.702-5.12-0.75-0.91-0.0567-1.82-0.113-2.76-0.172-0.699-0.0258-1.4-0.0516-2.12-0.0781v3c0.66 0.33 1.32 0.66 2 1-3.41-0.787-6.69-1.87-10-3 0.33-1.65 0.66-3.3 1-5 2.31-0.66 4.62-1.32 7-2v-2c0.99-0.66 1.98-1.32 3-2-2.41-1.2-4.1-1.2-6.79-1.32-0.941-0.0419-1.88-0.0838-2.85-0.127-0.985-0.0393-1.97-0.0786-2.98-0.119-0.993-0.0432-1.99-0.0864-3.01-0.131-2.46-0.106-4.91-0.208-7.37-0.307v-2z" fill="#20466C"/>
<path transform="translate(809,475)" d="m0 0h54c0.495 0.99 0.495 0.99 1 2-1.83-0.0309-1.83-0.0309-3.69-0.0625-3.23-0.00574-6.16 0.275-9.31 1.06 0.66 1.32 1.32 2.64 2 4h-2c0.953 5.2 0.953 5.2 4.56 8.75 0.804 0.413 1.61 0.825 2.44 1.25 1.04 3.13 0.934 3.99 0 7h-2c0.495 1.49 0.495 1.49 1 3 0.128 2.67 0.0439 5.32 0 8h2c-0.0412 0.743-0.0825 1.49-0.125 2.25 0.132 2.91 0.681 4.26 2.12 6.75 0.433 1.05 0.433 1.05 0.875 2.12 1.39 2.31 2.75 2.72 5.12 3.88 0.33 0.99 0.66 1.98 1 3l-1 2 2 1-0.879 5.76c-0.226 2.3-0.226 2.3 0.438 4.71 0.514 2.94 0.0688 4.43-0.934 7.21-1.68 5.09-2.3 9.98-2.62 15.3-2.92-0.681-5.35-1.58-8-3v-2h-3c-1-3-1-3 0-6-1.02-2.6-2.01-4.01-4-6 0.33-0.66 0.66-1.32 1-2h2v-2h-5v-3h-5c-0.33-0.99-0.66-1.98-1-3l2-2v-1h6v-2h-4v-2h3c-0.495-0.454-0.99-0.908-1.5-1.38-1.5-1.62-1.5-1.62-1.5-3.62 0.99-0.66 1.98-1.32 3-2l-2-2c0.309-0.742 0.619-1.49 0.938-2.25 1.47-5.2 1.73-10.4 2.06-15.8-1.98-0.66-3.96-1.32-6-2v-1h5v-2c-0.742 0.186-1.49 0.371-2.25 0.562-2.7 0.43-4.2 0.289-6.75-0.562v-3l2-1v-2c-0.66-0.33-1.32-0.66-2-1h3c-0.495-1.98-0.495-1.98-1-4-0.99 0.33-1.98 0.66-3 1v-2h-2v2c-2.38 1.06-2.38 1.06-5 2l-2-1c0.33 1.32 0.66 2.64 1 4h-2v2l2 1c-0.887-0.0619-1.77-0.124-2.69-0.188-3.71 0.21-5.29 1.14-8.31 3.19-0.99 0.33-1.98 0.66-3 1-0.66-0.66-1.32-1.32-2-2h2v-2c-3.7-0.95-6.3-0.95-10 0-0.33-2.31-0.66-4.62-1-7 2.52-0.901 3.57-1.19 6.06-0.0625 0.639 0.351 1.28 0.701 1.94 1.06h3c0.0825-0.577 0.165-1.15 0.25-1.75 0.955-2.87 2.53-4.25 4.75-6.25 0.99 0.33 1.98 0.66 3 1-0.33 0.66-0.66 1.32-1 2l2-1v-3l4-2c-2.66-0.886-4.48-1.18-7.23-1.32-1.2-0.0628-1.2-0.0628-2.43-0.127-0.833-0.0393-1.67-0.0786-2.53-0.119-0.845-0.0432-1.69-0.0864-2.56-0.131-2.08-0.106-4.17-0.207-6.25-0.307v-2z" fill="#20466C"/>
<path transform="translate(838,249)" d="m0 0h2c0.227 0.743 0.454 1.49 0.688 2.25 1.13 2.9 1.13 2.9 3.75 4.62 3.33 2.76 4.09 5.1 5.56 9.12-4.62 4-4.62 4-8 4v2h-3v3 2c-6.81 4.01-13.2 5.21-21 6-1.29 0.145-1.29 0.145-2.6 0.293-6.34 0.382-11.2-1.52-17-3.94-3.27-1.3-6.49-2.3-9.89-3.23-6.21-1.71-12.3-3.65-18.4-5.69-0.888-0.293-1.78-0.586-2.69-0.888-4.9-1.64-9.64-3.46-14.4-5.55-1.99-0.69-3.99-1.36-6-2-0.99-0.33-1.98-0.66-3-1v-2c10.2-0.178 20.3 0.212 30.5 1.23 3.69 0.364 7.37 0.698 11.1 1.03 0.725 0.0657 1.45 0.131 2.2 0.199 6.37 0.569 12.7 1.03 19.1 1.36 0.884 0.0528 1.77 0.106 2.68 0.16 0.805 0.0362 1.61 0.0723 2.44 0.11 0.684 0.0333 1.37 0.0665 2.07 0.101 2.34-0.221 3.88-1.06 5.93-2.18 2.25-0.57 4.5-1 6.78-1.44 4.55-1.15 6.48-2.83 9.22-6.56h2v-3zm-22 24v2h3c0.33 0.66 0.66 1.32 1 2v-3c3.02 0.588 6.02 1.23 9 2 0.33-0.99 0.66-1.98 1-3h-14zm5 2 1 2z" fill="#E88D1F"/>
<path transform="translate(1143 530)" d="m0 0c0.726 0.00935 1.45 0.0187 2.2 0.0283 1.19 0.00773 1.19 0.00773 2.4 0.0156 1.24 0.0309 1.24 0.0309 2.5 0.0625 0.828 0.00516 1.66 0.0103 2.51 0.0156 6.12 0.0797 6.12 0.0797 8.43 1.23 0.774 14.7 1.25 29.3 1.54 44 0.0434 2.17 0.0869 4.35 0.131 6.52 0.114 5.75 0.223 11.5 0.331 17.3 0.0666 3.56 0.134 7.12 0.202 10.7 0.711 37.5 1.1 75 0.802 113h-1c-0.049-1.17-0.098-2.34-0.148-3.54-0.0751-1.55-0.151-3.1-0.227-4.64-0.0309-0.769-0.0619-1.54-0.0938-2.33-0.217-4.22-0.629-7.62-2.53-11.5 0.33-0.33 0.66-0.66 1-1 0.159-1.88 0.251-3.77 0.316-5.65 0.0419-1.17 0.0838-2.34 0.127-3.54 0.0393-1.23 0.0786-2.47 0.119-3.74 0.0648-1.8 0.0648-1.8 0.131-3.63 0.119-3.48 0.217-6.95 0.307-10.4 0.0481-1.47 0.0481-1.47 0.0972-2.97 0.0182-0.878 0.0364-1.76 0.0552-2.66 0.0193-0.755 0.0385-1.51 0.0583-2.29-0.245-2.42-1.1-3.94-2.21-6.08-0.411-2.11-0.411-2.11-0.633-4.33-0.126-1.2-0.126-1.2-0.254-2.42-0.0786-0.825-0.157-1.65-0.238-2.5-0.0864-0.84-0.173-1.68-0.262-2.55-0.211-2.07-0.413-4.13-0.613-6.2h-2c-0.33-1.98-0.66-3.96-1-6-1.98 0.495-1.98 0.495-4 1 0.33-1.32 0.66-2.64 1-4 3 0 3 0 5 1 0.33-1.65 0.66-3.3 1-5-3.96 0.99-3.96 0.99-8 2 0.626-6.64 0.626-6.64 2.5-8.45 1.96-2.03 2-3.31 2.23-6.09 0.0806-0.893 0.161-1.79 0.244-2.71 0.0703-0.931 0.141-1.86 0.213-2.82 0.123-1.36 0.123-1.36 0.248-2.74 1.08-11.3 1.08-11.3-0.436-22.4-1.03-3.92-1.17-6.81-1-10.8h-4v-13c0.99 0.33 1.98 0.66 3 1v-3c-0.99 0.33-1.98 0.66-3 1-0.33-1.65-0.66-3.3-1-5 1.65-0.33 3.3-0.66 5-1v-18c-5.28-0.66-10.6-1.32-16-2 3-3 3-3 4.96-3.36z" fill="#214B74"/>
<path transform="translate(578,467)" d="m0 0v21c-3.62 0.724-6.24 1.12-9.81 1.06-1.19-0.0135-1.19-0.0135-2.39-0.0273-0.592-0.0116-1.18-0.0232-1.79-0.0352-0.66-1.65-1.32-3.3-2-5h-2c-0.33-0.99-0.66-1.98-1-3h-3v2h-7v3h-5l-3-6h-2c0.33 2.31 0.66 4.62 1 7 0.99-0.33 1.98-0.66 3-1 0.949 2.45 1.68 4.42 2 7-0.754 1.61-1.51 3.21-2.32 4.79-2.33 7.57 0.291 16.8 2.32 24.2 0.312 2.81 0.312 2.81 0 5l-3 3c-0.727 3.11-0.727 3.11-1 6h-1c-2.04-8.67-3.53-17.1-4-26h-1c-3.58-29.1-3.58-29.1-3-42 15.4-0.807 30.6-1.1 46-1zm-43 31 1 2z" fill="#20466D"/>
<path transform="translate(857,327)" d="m0 0c1.12 0.318 2.23 0.637 3.38 0.965 4 1 7.82 1.28 11.9 1.46 11.3 0.572 19.3 3.51 28.8 9.43 3.21 1.91 6.56 3.51 9.92 5.14-0.946 3.57-1.64 4.78-4.83 6.77-1.13 0.49-2.26 0.98-3.42 1.48-1.12 0.5-2.24 1-3.39 1.52-3.18 1.17-5.99 1.93-9.36 2.23-1.88-1.31-1.88-1.31-3-3v-2c-0.949-0.268-1.9-0.536-2.88-0.812-3.12-1.19-3.12-1.19-5.12-4.19-2.82-0.941-4.53-1.12-7.45-1.1-0.848 0.00322-1.7 0.00645-2.57 0.00977-1.32 0.0126-1.32 0.0126-2.67 0.0254-1.34 0.00677-1.34 0.00677-2.71 0.0137-2.2 0.0118-4.4 0.0282-6.61 0.0488v-3c-0.781-0.0251-1.56-0.0501-2.37-0.0759-3.57-0.117-7.13-0.239-10.7-0.362-1.23-0.0393-2.46-0.0786-3.72-0.119-5.81-0.203-11.5-0.431-17.2-1.44-0.33-0.99-0.66-1.98-1-3 1.02-0.232 2.05-0.464 3.11-0.703 3.79-0.86 7.58-1.73 11.4-2.61 1.64-0.377 3.28-0.752 4.93-1.12 2.36-0.533 4.71-1.08 7.07-1.62 0.739-0.165 1.48-0.329 2.24-0.499 1.78-0.419 3.54-0.925 5.3-1.45 0.33-0.66 0.66-1.32 1-2z" fill="#E98E1E"/>
<path transform="translate(887,738)" d="m0 0c3.38 0.312 3.38 0.312 7 1 0.66 0.99 1.32 1.98 2 3h4c1.53 2.76 2.31 5.02 2.63 8.15 0.0838 0.777 0.168 1.55 0.254 2.35 0.0786 0.802 0.157 1.6 0.238 2.43 0.0864 0.799 0.173 1.6 0.262 2.42 0.407 3.9 0.724 7.72 0.613 11.6-9.49 0.896-18.8 1.08-28.4 0.75-1.52-0.0395-1.52-0.0395-3.08-0.0798-0.951-0.0407-1.9-0.0814-2.88-0.123-0.851-0.0325-1.7-0.0651-2.58-0.0986-2.08-0.448-2.08-0.448-4.08-3.45-0.502-2.08-0.502-2.08-0.852-4.45-0.193-1.27-0.193-1.27-0.391-2.57-0.189-1.32-0.189-1.32-0.383-2.67-0.134-0.893-0.268-1.79-0.406-2.71-0.33-2.2-0.652-4.4-0.969-6.61h-1v-5c2.97 0.495 2.97 0.495 6 1 0.982 4.05 1.08 7.84 1 12 3.73-1.12 3.73-1.12 6-4 5.42-3 5.42-3 8-3 0.33-0.99 0.66-1.98 1-3 0.66-0.33 1.32-0.66 2-1 0.652-2.02 0.652-2.02 1-4h3v-2z" fill="#214A72"/>
<path transform="translate(575,556)" d="m0 0c2.31 0.33 4.62 0.66 7 1-0.33 1.98-0.66 3.96-1 6 2.35 0.688 2.35 0.688 5 1 0.99-0.66 1.98-1.32 3-2 0.33 1.65 0.66 3.3 1 5h-2l2 2h-2c-0.141 0.704-0.281 1.41-0.426 2.13-0.383 1.91-0.776 3.82-1.18 5.73-1.66 8.27-1.66 8.27 0.605 16.1 2.49 1.3 2.49 1.3 5 2 1.03 3.1 1.13 5.31 1.12 8.56 0.00387 1.46 0.00387 1.46 0.00781 2.94-0.133 2.5-0.133 2.5-1.13 4.5h-2c0.33 2.64 0.66 5.28 1 8l2-1c0.69 2.66 1.35 5.33 2 8 0.202 0.806 0.405 1.61 0.613 2.44 1.43 6.21 2.43 12.6-0.578 18.5-1.1 1.67-1.1 1.67-3.04 4.11-2.94-1-2.94-1-6-3-0.865-2.76-0.904-5.07-1-8h2v-2h-3c-1.32-2.64-2.64-5.28-4-8-1.49 0.495-1.49 0.495-3 1v-4h2c-0.0116-0.626-0.0232-1.25-0.0352-1.9-0.00902-0.817-0.018-1.63-0.0273-2.48-0.0116-0.812-0.0232-1.62-0.0352-2.46 0.0977-2.16 0.0977-2.16 1.1-4.16 0.00438-1.65-0.0589-3.3-0.156-4.95-0.0533-1.01-0.107-2.01-0.161-3.05-0.0602-1.07-0.12-2.14-0.182-3.25-0.369-7.03-0.579-13.8 0.188-20.8 0.576-5.78-0.337-8.27-3.69-12.9v-4h-2v-3h2v-2h-2c0.33-1.98 0.66-3.96 1-6z" fill="#214A72"/>
<path transform="translate(602,283)" d="m0 0c11.9-0.497 23.5 0.116 35.2 1.56 1.24 0.132 2.47 0.264 3.75 0.399 7.66 1.02 13.1 2.74 18 9.04v2h2v3c-9.12 2.69-18.9 0.705-28-1-4.9-0.826-9.1-1.07-14 0-4.77 0.933-9.16 1.08-14 1-0.33-0.66-0.66-1.32-1-2-1.11 0.228-2.22 0.456-3.36 0.691-1.46 0.291-2.93 0.581-4.39 0.871-0.73 0.151-1.46 0.303-2.21 0.459-3.7 0.724-6.43 1.08-10-0.0215v2c-1.98 0.33-3.96 0.66-6 1 1.41-3.43 2.86-4.87 6.03-6.76 0.792-0.479 1.58-0.958 2.4-1.45 0.828-0.487 1.66-0.973 2.51-1.47 0.824-0.498 1.65-0.996 2.5-1.51 6.08-3.64 6.08-3.64 9.56-4.8 0.33-0.99 0.66-1.98 1-3z" fill="#EA8E1E"/>
<path transform="translate(1034,772)" d="m0 0c1.32 0.66 2.64 1.32 4 2-0.33 1.98-0.66 3.96-1 6h5c0.0735 0.905 0.0735 0.905 0.148 1.83 0.0748 0.799 0.15 1.6 0.227 2.42 0.0696 0.789 0.139 1.58 0.211 2.39 0.429 2.45 1.2 4.21 2.41 6.36-1.65 1.32-3.3 2.64-5 4 1.98 0.33 3.96 0.66 6 1-0.33 1.32-0.66 2.64-1 4 1.09-0.33 2.19-0.66 3.31-1 3.69-1 3.69-1 6.69-1v2h2v-2c0.99 0.33 1.98 0.66 3 1 0.33-0.66 0.66-1.32 1-2h2c0.99-2.97 1.98-5.94 3-9 0.495 1.49 0.495 1.49 1 3 0.454-0.495 0.908-0.99 1.38-1.5 1.62-1.5 1.62-1.5 3.62-1.5-0.33-4.62-0.66-9.24-1-14h-5c-0.495-1.98-0.495-1.98-1-4h4v2h2v-2c0.99 0.33 1.98 0.66 3 1v36c-8.49 3.4-19.2 3.4-27.9 0.375-1.73-0.748-3.44-1.54-5.12-2.38-0.911-0.436-1.82-0.871-2.76-1.32-7.75-3.96-15.4-9.1-21.2-15.7-0.688-2.69-0.688-2.69-1-5 3.86-0.359 5.53-0.334 8.75 1.94 0.743 0.681 1.48 1.36 2.25 2.06 0.66 0.33 1.32 0.66 2 1 0.33-2.31 0.66-4.62 1-7l-2-1c1.65-0.66 3.3-1.32 5-2v-2h-2v2h-2v-4h4c0.33-1.32 0.66-2.64 1-4z" fill="#214B74"/>
<path transform="translate(716,470)" d="m0 0h42v6c-0.495-0.99-0.495-0.99-1-2-1.77-2.17-1.77-2.17-3.98-2.27-2.01 0.0142-4.02 0.134-6.02 0.266-0.66 1.32-1.32 2.64-2 4h2c-0.33 2.64-0.66 5.28-1 8l2 1c-0.66 1.65-1.32 3.3-2 5h-3c0.0838 0.915 0.168 1.83 0.254 2.77 0.153 1.78 0.153 1.78 0.309 3.6 0.157 1.78 0.157 1.78 0.316 3.59 0.121 3.04 0.121 3.04-0.879 5.04-1.49-0.495-1.49-0.495-3-1h2v-2l-2-1c-0.625-3.06-0.625-3.06-1-6h-4c-0.99 2.31-1.98 4.62-3 7-1.88-0.25-1.88-0.25-4-1-2.36-3.18-2.17-6.15-2-10h-3c-0.33 0.66-0.66 1.32-1 2l-2-1c-0.124 0.722-0.247 1.44-0.375 2.19-0.615 2.77-1.51 5.21-2.62 7.81-1.98-0.33-3.96-0.66-6-1-0.0427-1.67-0.0406-3.33 0-5 0.33-0.33 0.66-0.66 1-1 0.369-1.85 0.683-3.71 0.973-5.57 0.16-1.01 0.32-2.03 0.485-3.07 0.2-1.3 0.399-2.59 0.605-3.93 0.639-4.1 1.28-8.21 1.94-12.4zm-4 26 1 3z" fill="#214A72"/>
<path transform="translate(937,550)" d="m0 0c0.66 0.99 1.32 1.98 2 3-0.33 0.33-0.66 0.66-1 1-0.0724 2.02-0.0838 4.04-0.0625 6.06 0.00902 1.1 0.018 2.21 0.0273 3.35 0.0116 0.855 0.0232 1.71 0.0352 2.59 0.66 0.33 1.32 0.66 2 1 2 2 2 2 2.16 4.02-0.0322 0.776-0.0645 1.55-0.0977 2.35-0.094 2.44-0.119 4.41 0.492 6.78 0.611 2.53-0.304 3.64-1.55 5.84v2c-0.99 0.495-0.99 0.495-2 1-0.651 2.09-0.651 2.09-1.06 4.5-0.844 4.41-0.844 4.41-1.94 5.5-2.67 0.141-5.32 0.0425-8 0-0.692 1.85-0.692 1.85-1 4 1.72 3.25 1.72 3.25 5 4v4h2v-2h2c1.19 1.62 1.19 1.62 2 4-1.38 3.25-1.38 3.25-3 6h-3c-0.454-0.66-0.908-1.32-1.38-2-0.804-0.99-0.804-0.99-1.62-2-2.63-0.334-2.63-0.334-5 0-1.79-2.74-2.06-3.7-1.38-7 0.124-0.99 0.247-1.98 0.375-3-1.81-2.4-1.81-2.4-4-4v2c0.99 0.66 1.98 1.32 3 2-1.4 10.4-1.4 10.4-4 13-1.49 0.495-1.49 0.495-3 1-0.338-1.89-0.671-3.79-1-5.69-0.186-1.06-0.371-2.11-0.562-3.2-0.388-2.76-0.52-5.33-0.438-8.11 2.13 3.19 2.5 5.27 3 9l1-1c-0.181-2.31-0.52-4.58-0.844-6.87-0.156-2.13-0.156-2.13 0.844-4.13h2c-0.0619-1.89-0.0619-1.89-0.125-3.81-0.114-3.48 0.0657-4.1 2.12-7.19 0.33-0.66 0.66-1.32 1-2h5v2h4v-2c0.99-0.495 0.99-0.495 2-1 1.3-3.26 0.841-5.22-0.375-8.44-1.15-3.18-2.08-6.21-2.62-9.56h-2c0.33-1.32 0.66-2.64 1-4 1.32-0.33 2.64-0.66 4-1v-2c-0.66-0.33-1.32-0.66-2-1-0.625-2.56-0.625-2.56-1-5h4c-0.33-0.99-0.66-1.98-1-3 1.32-0.33 2.64-0.66 4-1zm-8 67 2 1z" fill="#214B74"/>
<path transform="translate(890,671)" d="m0 0h1v10h-2c0.0412 0.742 0.0825 1.49 0.125 2.25-0.131 2.87-0.691 4.3-2.12 6.75-1.35 2.7-0.606 4.07 0 7 0.0653 1.94 0.0858 3.88 0.0625 5.81-0.00902 0.976-0.018 1.95-0.0273 2.96-0.0116 0.736-0.0232 1.47-0.0352 2.23h2c0.495 8.41 0.495 8.41 1 17-0.33-1.32-0.66-2.64-1-4h-2c-0.144 1.11-0.289 2.23-0.438 3.38-0.562 3.62-0.562 3.62-1.56 5.62h-6v6h-1c-0.33-1.65-0.66-3.3-1-5-0.99 0.495-0.99 0.495-2 1 0.33-2.97 0.66-5.94 1-9 1.98-0.495 1.98-0.495 4-1 0.33-0.99 0.66-1.98 1-3 0.66-0.66 1.32-1.32 2-2-0.495-1.49-0.495-1.49-1-3h-2c-0.66-0.99-1.32-1.98-2-3-2.56-0.73-2.56-0.73-5-1-0.33-1.65-0.66-3.3-1-5 0.99-0.66 1.98-1.32 3-2 0.724-2.06 0.724-2.06 1-4 1.65 0.33 3.3 0.66 5 1-0.66-0.99-1.32-1.98-2-3-0.33-0.66-0.66-1.32-1-2-2.02-0.652-2.02-0.652-4-1h2c-0.66-1.98-1.32-3.96-2-6l2-2c0.697-1.32 1.37-2.65 2-4 0.66 0.33 1.32 0.66 2 1 0.99-0.33 1.98-0.66 3-1 0.33-0.99 0.66-1.98 1-3h2c0.33-0.99 0.66-1.98 1-3 0.99-0.33 1.98-0.66 3-1v-4z" fill="#214A72"/>
<path transform="translate(980,476)" d="m0 0c-2.48 1.49-2.48 1.49-5 3l2 1v2c-1.98 0.66-3.96 1.32-6 2-0.33 1.98-0.66 3.96-1 6h9c-0.33 0.66-0.66 1.32-1 2-5.45 1.28-5.45 1.28-8 0v5h-3v-2c-2.12-1.12-2.12-1.12-5-2-0.99-0.66-1.98-1.32-3-2v-2c-2.64-0.33-5.28-0.66-8-1 0.33 1.98 0.66 3.96 1 6h-2c0.66 1.32 1.32 2.64 2 4-1.94 0.562-1.94 0.562-4 1-0.33-0.33-0.66-0.66-1-1v4h-3v5c-1.49 0.495-1.49 0.495-3 1-0.733 2.02-0.733 2.02-1 4h-6c0.66-0.66 1.32-1.32 2-2-1.98-1.32-3.96-2.64-6-4 3.9-8.58 10.8-15.2 18.1-21.1 0.565-0.465 1.13-0.93 1.71-1.41 4.24-3.28 7.96-4.51 13.2-5.53v2c-1.65 0.66-3.3 1.32-5 2 4.11 0 5.39-0.495 8.88-2.38 10-5.19 10-5.19 13.1-3.62z" fill="#1D4367"/>
<path transform="translate(958,566)" d="m0 0h2c0.0251 0.584 0.0501 1.17 0.0759 1.77 0.118 2.7 0.24 5.4 0.362 8.11 0.0393 0.918 0.0786 1.84 0.119 2.78 0.281 6.14 0.767 12.2 1.44 18.3h-2v54c-1.32-0.66-2.64-1.32-4-2v-6h-2c-0.495-2.97-0.495-2.97-1-6-0.99 0.99-0.99 0.99-2 2-1.85-5.47-2.25-10.2-2.12-15.9 0.00902-0.779 0.018-1.56 0.0273-2.36 0.0233-1.9 0.0592-3.8 0.0977-5.7h2v-5c1.49-0.495 1.49-0.495 3-1 1.44-4.32 1.54-8.82 0.443-13.2-0.525-3.28-0.178-5.88 0.334-9.16 0.184-1.2 0.367-2.4 0.557-3.64 0.199-1.25 0.398-2.49 0.604-3.78 0.195-1.27 0.391-2.53 0.592-3.83 0.483-3.12 0.973-6.24 1.47-9.35z" fill="#214B74"/>
<path transform="translate(720,717)" d="m0 0h4c-0.293 12.3-1.41 24.4-3 36.6-0.0896 0.697-0.179 1.39-0.272 2.11-1.54 11.9-1.54 11.9-2.73 14.3h-9c-0.33-1.65-0.66-3.3-1-5 0.99-0.495 0.99-0.495 2-1v-4c-0.99-0.33-1.98-0.66-3-1-0.33-2.97-0.66-5.94-1-9 0.99-0.66 1.98-1.32 3-2-0.66-0.33-1.32-0.66-2-1 1.75-4.88 1.75-4.88 4-6v-4h2c0.33 0.33 0.66 0.66 1 1 0.495-4.46 0.495-4.46 1-9 0.66 0.33 1.32 0.66 2 1-0.33 2.31-0.66 4.62-1 7h2v-8h2c-0.33-0.99-0.66-1.98-1-3-0.178-2.69-0.0873-5.29 0-8l1-1z" fill="#214B74"/>
<path transform="translate(725,584)" d="m0 0c2.97 0.495 2.97 0.495 6 1 0.33 1.32 0.66 2.64 1 4 0.99-0.33 1.98-0.66 3-1h5c0.833 6.25 1.04 11.8 0 18h-2c-0.124 0.701-0.247 1.4-0.375 2.12-0.676 3.11-1.36 5.95-2.62 8.88-1.75 0.812-1.75 0.812-4 1-1.07 0.186-2.14 0.371-3.25 0.562-0.908 0.144-1.82 0.289-2.75 0.438-1.62-2.56-1.62-2.56-3-6 0.662-2.33 1.33-4.67 2-7 0.11-2.73 0.148-5.35 0.0625-8.06-0.122-4.76-0.00689-9.24 0.938-13.9z" fill="#214A72"/>
<path transform="translate(724,650)" d="m0 0c0.0578 4.46 0.0935 8.92 0.125 13.4 0.0168 1.27 0.0335 2.54 0.0508 3.85 0.00645 1.21 0.0129 2.42 0.0195 3.67 0.0105 1.12 0.0209 2.24 0.0317 3.4-0.227 2.71-0.227 2.71-2.23 4.71-0.33-0.99-0.66-1.98-1-3-0.66 2.97-1.32 5.94-2 9-0.33-1.32-0.66-2.64-1-4-2.31 0.33-4.62 0.66-7 1v3c0.99 0.33 1.98 0.66 3 1-0.804 0.289-1.61 0.577-2.44 0.875-2.7 0.858-2.7 0.858-3.56 3.12h-4v-7c-1.49 0.495-1.49 0.495-3 1-0.33-1.65-0.66-3.3-1-5h2c0.33-0.66 0.66-1.32 1-2 0.66 0.33 1.32 0.66 2 1v-9c2.97-0.33 5.94-0.66 9-1v-4c0.66-0.33 1.32-0.66 2-1 0.238-2.26 0.238-2.26 0.25-4.88 0.203-2.73 0.203-2.73 0.75-5.12 4.24-3 4.24-3 7-3z" fill="#214A72"/>
<path transform="translate(845,637)" d="m0 0c0.99 1.49 0.99 1.49 2 3h4v3c0.66 0.33 1.32 0.66 2 1-0.0619 1.22-0.124 2.43-0.188 3.69-0.0253 5.33 1.19 10.2 2.53 15.3 0.607 2.79 0.783 5.17 0.656 8.02h2c0.33-0.66 0.66-1.32 1-2h3c2.93 5.63 3.2 8.77 2 15-2.48 0.495-2.48 0.495-5 1-0.33 2.31-0.66 4.62-1 7-4 0-4 0-5.69-1.64-1.55-2.78-1.91-4.92-2.26-8.08-0.126-1.12-0.251-2.23-0.381-3.38-0.118-1.16-0.236-2.32-0.357-3.52-0.13-1.14-0.259-2.28-0.393-3.45-0.723-6.67-1.1-13.2-0.92-19.9h-2c-1.04-5.05-1.1-9.87-1-15zm5 33 1 2z" fill="#214A72"/>
<path transform="translate(865,584)" d="m0 0c0.66 0.33 1.32 0.66 2 1v4c0.536-0.186 1.07-0.371 1.62-0.562 2.99-0.552 5.41-0.0435 8.38 0.562 0.568 7.46 0.396 12.7-3.81 19.1-1.22 1.99-1.75 3.66-2.19 5.94-0.66-0.33-1.32-0.66-2-1 0.33-1.32 0.66-2.64 1-4-1.98 0.99-1.98 0.99-4 2v3c-2.31-0.33-4.62-0.66-7-1v-3h4v-2c-0.742 0.186-1.49 0.371-2.25 0.562-2.74 0.436-4.14 0.19-6.75-0.562 0.108-1.05 0.108-1.05 0.219-2.12 0.139-1.37 0.139-1.37 0.281-2.76 0.0928-0.905 0.186-1.81 0.281-2.74 0.249-2.32 0.249-2.32 0.219-4.38h3v2h2v-2h4c-0.0206-0.742-0.0412-1.49-0.0625-2.25 0.0562-2.47 0.431-4.38 1.06-6.75v-3z" fill="#214A72"/>
<path transform="translate(640 576)" d="m0 0c1.94 0.0193 1.94 0.0193 3.93 0.0391 1.36 0.0334 2.73 0.0673 4.09 0.102 1.38 0.0201 2.76 0.0383 4.14 0.0547 3.37 0.0472 6.74 0.113 10.1 0.195-0.33 0.66-0.66 1.32-1 2h-27c-0.733 3.67-1.1 6.37-1 10 1.11-0.33 2.23-0.66 3.38-1 4.89-1.24 9.61-1.18 14.6-1 0.33-1.32 0.66-2.64 1-4h2c-0.33 1.32-0.66 2.64-1 4 1.32 0.66 2.64 1.32 4 2l-5 5c-0.846 0.908-1.69 1.82-2.56 2.75-2.31 2.13-3.38 2.91-6.44 3.25v5c-4.46-0.99-4.46-0.99-9-2-1.05-4.2-0.728-6.79 0-11-0.99-0.33-1.98-0.66-3-1v-2c-1.32 0.33-2.64 0.66-4 1 0.231-1.42 0.485-2.84 0.75-4.25 0.139-0.789 0.278-1.58 0.422-2.39 2.09-5.97 5.62-6.85 11.6-6.75z" fill="#1C3D5E"/>
<path transform="translate(639,630)" d="m0 0c0.66 0.33 1.32 0.66 2 1-0.0412 1.09-0.0825 2.19-0.125 3.31-0.196 3.78-0.196 3.78 2.12 6.69-0.413 2.72-0.932 5.22-1.62 7.88-0.282 1.13-0.282 1.13-0.57 2.29-1.69 6.69-3.71 13.3-5.81 19.8-0.687 2.33-1.35 4.66-2 7h-1c-0.33-2.64-0.66-5.28-1-8h-4c-1.18-3.68-1.14-7.16-1-11 0.33-0.33 0.66-0.66 1-1v-4h4c0.33-0.99 0.66-1.98 1-3l2-2c-0.703-2.51-0.703-2.51-2-5-2.04-0.887-2.04-0.887-4-1 0.66-1.32 1.32-2.64 2-4v2h5v-6h3c0.33-1.65 0.66-3.3 1-5z" fill="#214B74"/>
<path transform="translate(451,707)" d="m0 0c0.66 0.66 1.32 1.32 2 2 0.495-0.351 0.99-0.701 1.5-1.06 4.55-1.71 9.07-0.445 13.5 1.12 0.66 0.309 1.32 0.619 2 0.938v2h6l1-2c2.65-0.594 5.29-0.742 8-1 0.179 3.95 0.0935 6.6-2 10h-4c-0.33 0.99-0.66 1.98-1 3h-14c-0.66-1.65-1.32-3.3-2-5h-3.31-6.69c-1.65-2.97-2.44-5.66-3-9 0.66-0.33 1.32-0.66 2-1z" fill="#214B74"/>
<path transform="translate(500,726)" d="m0 0 1 2c0.99-0.33 1.98-0.66 3-1 0.33 2.31 0.66 4.62 1 7h10c-0.486 3.12-0.999 6-2 9-0.0387 1.67-0.045 3.33 0 5-1.32 0.33-2.64 0.66-4 1v2c-0.949-0.0206-1.9-0.0412-2.88-0.0625-3.03-0.163-3.03-0.163-5.12 1.06-3.36-2.75-5.29-4.76-5.88-9.06-0.164-5.17-0.164-5.17 0.875-7.94h2c-0.33-0.99-0.66-1.98-1-3h2v6h2c0.0427-1.67 0.0406-3.33 0-5-0.33-0.33-0.66-0.66-1-1-0.0408-2-0.0425-4 0-6z" fill="#214B74"/>
<path transform="translate(716,470)" d="m0 0h42v6c-0.495-0.99-0.495-0.99-1-2-2.31-2.31-2.92-2.34-6.06-2.44-1.3 0.144-2.6 0.289-3.94 0.438-0.99 1.49-0.99 1.49-2 3-2.46 0.406-2.46 0.406-5.38 0.5-4.23 0.137-6.48 0.573-9.62 3.5-0.33 0.66-0.66 1.32-1 2-4.29-0.33-8.58-0.66-13-1-1-6-1-6 0-10z" fill="#214B74"/>
<path transform="translate(868,627)" d="m0 0h2v15c3.47-0.495 3.47-0.495 7-1 0.206 1.11 0.413 2.23 0.625 3.38 0.991 3.89 0.991 3.89 4.5 5.06 0.949 0.186 1.9 0.371 2.88 0.562v9c-1.18 0.186-1.18 0.186-2.38 0.375-2.77 0.416-2.77 0.416-4.62 2.62-1.88-0.5-1.88-0.5-4-2-0.985-2.65-1.46-5.21-2-8-1.65-0.33-3.3-0.66-5-1-0.027-1.46-0.0464-2.92-0.0625-4.38-0.0116-0.812-0.0232-1.62-0.0352-2.46 0.0977-2.16 0.0977-2.16 1.1-4.16 0.0709-2.21 0.0842-4.42 0.0625-6.62-0.00902-1.19-0.018-2.38-0.0273-3.6-0.0116-0.915-0.0232-1.83-0.0352-2.77z" fill="#214A72"/>
<path transform="translate(736,524)" d="m0 0c1.68 0.286 3.34 0.618 5 1 0.33 1.32 0.66 2.64 1 4h-1c-0.0606 1.22-0.121 2.43-0.184 3.68-0.0844 1.58-0.169 3.17-0.254 4.75-0.059 1.2-0.059 1.2-0.119 2.43-0.33 6.02-0.33 6.02-1.44 7.13-0.262 2.14-0.46 4.29-0.625 6.44-0.0954 1.17-0.191 2.35-0.289 3.56-0.321 2.93-0.321 2.93 0.914 5-1.65-0.33-3.3-0.66-5-1-1.6-4.19-2.2-7.53-2-12 0.0947-1.97 0.0947-1.97-0.5-3.69-0.692-3.2-0.737-6.05-0.5-9.31l3-3c0.536-2.66 0.738-5.3 1-8l1-1z" fill="#214A72"/>
<path transform="translate(841,582)" d="m0 0c2.09 3.13 2.71 5.37 3.56 9 0.723 3.06 1.44 6.02 2.44 9 0.181 2.88 0.324 5.74 0.438 8.62 0.292 6.37 1.01 12.2 2.56 18.4 0.125 3.56 0.125 3.56 0 6h-2v-4c-0.786-0.165-1.57-0.33-2.38-0.5-2.62-1.5-2.62-1.5-3.8-4.94-0.263-1.52-0.492-3.04-0.695-4.56-0.121-0.816-0.242-1.63-0.366-2.47-1.44-11.5-0.526-23 0.241-34.5z" fill="#214A72"/>
<path transform="translate(708,538)" d="m0 0c2.91 3.23 3.37 5.31 3.25 9.62-0.0155 0.962-0.0309 1.92-0.0469 2.91-0.203 2.46-0.203 2.46-1.2 4.46h-3c-0.233 3.53-0.233 3.53 1 6.75 1.37 3.08 1.19 5.65 1.12 9-0.018 1.17-0.0361 2.34-0.0547 3.55-0.0232 0.892-0.0464 1.78-0.0703 2.7h-3c-0.33 1.98-0.66 3.96-1 6-0.66-0.33-1.32-0.66-2-1-0.562-1.81-0.562-1.81-1-4-0.18-0.608-0.361-1.22-0.546-1.84-0.515-2.45-0.403-4.4-0.149-6.89 0.0889-0.885 0.178-1.77 0.27-2.68 0.0993-0.916 0.199-1.83 0.301-2.78 0.0915-0.927 0.183-1.85 0.277-2.81 0.713-6.87 0.713-6.87 1.85-8 0.538-3.62 0.967-7.24 1.4-10.9 0.197-1.03 0.394-2.06 0.598-3.12 0.66-0.33 1.32-0.66 2-1zm-4 16 1 3z" fill="#214A72"/>
<path transform="translate(485,658)" d="m0 0h1c1.69 7.77 2.31 15.5 2.69 23.4 0.0724 1.43 0.0724 1.43 0.146 2.88 0.198 4.74 0.203 9.08-0.834 13.7-3.82-3.47-5.16-6.82-5.85-11.9-0.129-0.939-0.258-1.88-0.391-2.85-0.126-0.975-0.253-1.95-0.383-2.96-0.134-0.956-0.268-1.91-0.406-2.9-0.783-5.86-1.1-11.5-0.969-17.4h3v5h2c-0.186-0.598-0.371-1.2-0.562-1.81-0.438-2.19-0.438-2.19 0.562-5.19zm-4 9 1 2z" fill="#214A72"/>
<path transform="translate(817,562)" d="m0 0c0.33 2.64 0.66 5.28 1 8 0.99 0.33 1.98 0.66 3 1h-3v2c1.65 0.33 3.3 0.66 5 1v4c-0.33 0.33-0.66 0.66-1 1v3c-0.33 0.66-0.66 1.32-1 2-0.928-0.309-0.928-0.309-1.88-0.625-0.701-0.124-1.4-0.247-2.12-0.375-0.66 0.66-1.32 1.32-2 2h-3c-0.336-1.94-0.669-3.87-1-5.81-0.186-1.08-0.371-2.16-0.562-3.27-0.438-2.92-0.438-2.92-0.438-5.92l-2-2c0.66-0.33 1.32-0.66 2-1 0.652-2.02 0.652-2.02 1-4 2.08-0.553 3.84-1 6-1z" fill="#214B74"/>
<path transform="translate(451,604)" d="m0 0c0.33 0.99 0.66 1.98 1 3h3l2 4c0.33-1.65 0.66-3.3 1-5 0.66 0.66 1.32 1.32 2 2-0.156 2.69-0.42 5.22-0.812 7.88-0.144 1.08-0.144 1.08-0.291 2.18-0.365 2.66-0.726 5.29-1.41 7.89-0.539 2.25-0.767 4.41-0.956 6.72-0.078 0.894-0.156 1.79-0.236 2.71-0.156 1.85-0.31 3.71-0.461 5.56-0.514 5.84-1.45 11.4-2.84 17.1h-1c-0.0888-6 0.191-11.7 0.938-17.7 0.923-7.76 1.59-15.5 2.06-23.3l-4 2c-1-1-1-1-1.13-3.4 0.00258-0.982 0.00516-1.96 0.00781-2.98-0.00258-0.977-0.00516-1.95-0.00781-2.96 0.133-2.66 0.133-2.66 1.13-5.66z" fill="#214B74"/>
<path transform="translate(420,573)" d="m0 0c1.95 1.18 1.95 1.18 4 3 0.609 2.48 0.609 2.48 0.75 5.19 0.0567 0.901 0.113 1.8 0.172 2.73 0.0387 1.03 0.0387 1.03 0.0781 2.08h-2c-0.11 0.603-0.219 1.21-0.332 1.83-0.898 4.53-1.7 7.56-4.67 11.2-0.356 1.66-0.692 3.33-1 5-0.66 0.66-1.32 1.32-2 2v-8h-1c0.393-5.98 1.54-10.5 4-16 0.784-2.98 1.42-5.98 2-9z" fill="#214971"/>
<path transform="translate(827,609)" d="m0 0h1c-0.418 7.53-1.05 14.8-2.52 22.2-0.845 4.88-1.15 9.81-1.48 14.8h-1c-0.121-0.953-0.242-1.91-0.367-2.89-0.168-1.25-0.335-2.51-0.508-3.8-0.162-1.24-0.325-2.48-0.492-3.76-0.56-3.14-1.41-5.63-2.63-8.55v-7c-0.0412-1.03-0.0825-2.06-0.125-3.12 0.125-2.88 0.125-2.88 2.12-4.88 0.33 1.32 0.66 2.64 1 4 3.11-1.99 3.11-1.99 4.75-5.19 0.0825-0.598 0.165-1.2 0.25-1.81z" fill="#214C75"/>
<path transform="translate(716,470)" d="m0 0h42v6c-0.495-0.99-0.495-0.99-1-2-1.77-2.17-1.77-2.17-3.98-2.27-2.01 0.0142-4.02 0.134-6.02 0.266-0.33 0.66-0.66 1.32-1 2-3.94 0.058-7.87 0.0936-11.8 0.125-1.12 0.0168-2.24 0.0335-3.39 0.0508-1.07 0.00645-2.15 0.0129-3.25 0.0195-1.48 0.0157-1.48 0.0157-3 0.0317-2.54-0.227-2.54-0.227-5.54-2.23h-3v-2z" fill="#12283E"/>
<path transform="translate(961,656)" d="m0 0c0.33 4.62 0.66 9.24 1 14-1.32-0.33-2.64-0.66-4-1-0.842 2.92-1.12 5.51-1.1 8.55 0.00322 0.844 0.00645 1.69 0.00977 2.56 0.00838 0.873 0.0168 1.75 0.0254 2.64 0.00677 1.33 0.00677 1.33 0.0137 2.69 0.0118 2.19 0.0282 4.37 0.0488 6.56h-1v-6h-2c-0.366-1.56-0.718-3.12-1.06-4.69-0.197-0.87-0.394-1.74-0.598-2.64-0.363-2.86-0.00746-4.89 0.66-7.68 0.037-1.67 0.0476-3.33 0-5 0.99-0.33 1.98-0.66 3-1 0.155-1.67 0.155-1.67 0.312-3.38 0.227-1.2 0.454-2.39 0.688-3.62 3-2 3-2 4-2z" fill="#214B74"/>
<path transform="translate(653,618)" d="m0 0c3 1 3 1 4 2 2.01-0.287 4.01-0.619 6-1 0.725 1.76 1.43 3.54 2.12 5.31 0.394 0.986 0.789 1.97 1.2 2.99 0.224 0.891 0.449 1.78 0.68 2.7-0.99 1.49-0.99 1.49-2 3-2.62 0.188-2.62 0.188-5 0v-4h-3c-0.268-0.639-0.536-1.28-0.812-1.94-1.07-2.39-1.07-2.39-4.19-3.06 0.66-0.99 1.32-1.98 2-3h-2c0.33-0.99 0.66-1.98 1-3z" fill="#214A72"/>
<path transform="translate(651,647)" d="m0 0c0.66 1.32 1.32 2.64 2 4h2c0.268 0.949 0.536 1.9 0.812 2.88 0.937 3.38 0.937 3.38 4.19 5.12 0.597 3.04 1 5.9 1 9h-2v6c-0.66 0.33-1.32 0.66-2 1-1.16-3.47-1.76-6.93-2.4-10.5-0.587-2.43-1.45-4.27-2.6-6.47-0.44-1.34-0.837-2.7-1.19-4.06-0.179-0.672-0.358-1.34-0.543-2.04-0.27-1.9-0.27-1.9 0.73-4.9z" fill="#214A72"/>
<path transform="translate(476,600)" d="m0 0c4.51 6.76 4.26 16.1 4 24-1.88 1.06-1.88 1.06-4 2-2-1-2-1-3-4-0.0685-1.89-0.0848-3.79-0.0625-5.69 0.00902-0.994 0.018-1.99 0.0273-3.01 0.0116-0.759 0.0232-1.52 0.0352-2.3h1c-0.0412-0.887-0.0825-1.77-0.125-2.69 0.124-3.29 0.739-5.37 2.12-8.31z" fill="#214A72"/>
<path transform="translate(1049,583)" d="m0 0h3c0.66 3.3 1.32 6.6 2 10h-2c0.33 0.99 0.66 1.98 1 3-0.481 0.388-0.962 0.776-1.46 1.18-2 2.37-2.03 3.95-2.23 7.01-0.0657 0.901-0.131 1.8-0.199 2.73-0.0374 0.687-0.0748 1.37-0.113 2.08h-2c-2.73-14-2.73-14 0-20 0.66-0.33 1.32-0.66 2-1v-5z" fill="#20486E"/>
<path transform="translate(935,734)" d="m0 0 2 2c-0.33 0.33-0.66 0.66-1 1 1.98 0.66 3.96 1.32 6 2 0.144 0.742 0.289 1.49 0.438 2.25 0.464 2.27 0.981 4.51 1.56 6.75l-4 2c-3.63-4.29-7.26-8.58-11-13 0.33-0.66 0.66-1.32 1-2 1.49 0.99 1.49 0.99 3 2v-2c0.66-0.33 1.32-0.66 2-1z" fill="#214A72"/>
<path transform="translate(919,600)" d="m0 0c2.56 2.12 2.56 2.12 5 5-0.312 3.12-0.312 3.12-1 6 1.67 3.22 1.67 3.22 4.62 3.69 0.784 0.103 1.57 0.206 2.38 0.312 0.33 1.32 0.66 2.64 1 4h-6v4h-2v2h-2c-0.709-2.21-1.11-3.59-0.5-5.86 0.568-2.44 0.401-4.24 0.0625-6.71-0.339-2.54-0.562-4.86-0.562-7.44-0.833-2.17-0.833-2.17-3-3l2-2z" fill="#214A72"/>
<path transform="translate(912,624)" d="m0 0c3 1 3 1 4 3 0.188 4.8-0.323 9.26-1 14 0.0206 1.24 0.0412 2.48 0.0625 3.75-0.0625 3.25-0.0625 3.25-2.06 6.25-0.66-0.33-1.32-0.66-2-1-0.0289-3.96-0.0468-7.92-0.0625-11.9-0.00838-1.13-0.0168-2.26-0.0254-3.42-0.00322-1.08-0.00645-2.15-0.00977-3.26-0.00524-0.995-0.0105-1.99-0.0159-3.02 0.114-2.43 0.114-2.43 1.11-4.43zm0 12 1 3z" fill="#214A72"/>
<path transform="translate(572,515)" d="m0 0h5c0.0427 1.67 0.0406 3.33 0 5l-1 1c-0.396 2.01-0.743 4.04-1.06 6.06-0.265 1.66-0.265 1.66-0.535 3.35-0.133 0.855-0.266 1.71-0.402 2.59-3.69-1.23-4.72-2.94-7-6 0.66-0.33 1.32-0.66 2-1-0.33-1.98-0.66-3.96-1-6h2v-3h2v-2z" fill="#224A72"/>
<path transform="translate(452,664)" d="m0 0c-1.01 16.9-1.01 16.9-3 23-0.66 0.33-1.32 0.66-2 1v-11h-2v-5c-0.66-0.33-1.32-0.66-2-1 0.66-0.33 1.32-0.66 2-1 0.66 0.33 1.32 0.66 2 1 0.433-1.45 0.433-1.45 0.875-2.94 1.49-4.06 1.49-4.06 4.12-4.06z" fill="#214B74"/>
<path transform="translate(745,517)" d="m0 0c1.32 0.66 2.64 1.32 4 2 0.122 7.74-0.152 15.3-1 23h-3c-1-1-1-1-1.02-3.32 0.0471-1 0.0943-2 0.143-3.03l0.146-3.27c0.0561-1.14 0.112-2.27 0.17-3.44 0.0522-1.14 0.104-2.28 0.158-3.46 0.13-2.83 0.265-5.66 0.404-8.48z" fill="#214A72"/>
<path transform="translate(725,683)" d="m0 0h1c0.0539 2.94 0.0936 5.87 0.125 8.81 0.0168 0.833 0.0335 1.67 0.0508 2.53 0.00645 0.802 0.0129 1.6 0.0195 2.43 0.0105 0.738 0.0209 1.48 0.0317 2.24-0.227 1.99-0.227 1.99-2.23 4.99-1.84-1.57-2.89-2.51-3.43-4.9-0.0262-0.696-0.0524-1.39-0.0793-2.11-0.0354-0.757-0.0709-1.51-0.107-2.29-0.0226-0.786-0.0451-1.57-0.0684-2.38-0.0342-0.797-0.0683-1.59-0.104-2.42-0.0824-1.97-0.147-3.93-0.209-5.9h3c0.33 0.66 0.66 1.32 1 2 0.33-0.99 0.66-1.98 1-3z" fill="#214A72"/>
<path transform="translate(901,746)" d="m0 0h1c0.337 2.9 0.67 5.79 1 8.69 0.0954 0.817 0.191 1.63 0.289 2.47 0.45 3.97 0.841 7.84 0.711 11.8h-8c0.33-1.32 0.66-2.64 1-4 0.33 0.66 0.66 1.32 1 2 0.33-1.65 0.66-3.3 1-5h2c-0.309-1.46-0.622-2.92-0.938-4.38-0.261-1.22-0.261-1.22-0.527-2.46-0.458-2.19-0.458-2.19-1.54-4.16 0.33-0.66 0.66-1.32 1-2h2v-3z" fill="#214B74"/>
<path transform="translate(630,681)" d="m0 0c1.17 3.43 0.813 5.54-0.215 8.98-0.274 0.935-0.548 1.87-0.83 2.83-0.295 0.968-0.589 1.94-0.893 2.93-0.291 0.984-0.581 1.97-0.881 2.98-0.718 2.43-1.45 4.85-2.18 7.27h-2v-10h3c-0.215-0.541-0.431-1.08-0.652-1.64-0.487-3.31 0.638-5.13 2.09-8.11 0.473-0.985 0.946-1.97 1.43-2.98 0.373-0.748 0.745-1.5 1.13-2.27z" fill="#214B74"/>
<path transform="translate(526,703)" d="m0 0h1c0.508 3.69 1 7.37 1.5 11.1 0.143 1.04 0.286 2.08 0.434 3.15 0.708 5.31 1.25 10.4 1.07 15.8-1.32-0.66-2.64-1.32-4-2 0.33-0.33 0.66-0.66 1-1 0.0409-2.33 0.0424-4.67 0-7-0.66 0.33-1.32 0.66-2 1-0.138-7.07 0.252-14 1-21z" fill="#214C75"/>
<path transform="translate(457,694)" d="m0 0h15c0.33 1.32 0.66 2.64 1 4-2.46 1.23-3.64 0.968-6.35 0.66-1.28-0.14-1.28-0.14-2.58-0.283-0.889-0.104-1.78-0.208-2.7-0.314-1.35-0.15-1.35-0.15-2.72-0.303-2.22-0.248-4.44-0.501-6.66-0.76v-1h5v-2z" fill="#214C75"/>
<path transform="translate(623,707)" d="m0 0c1.25 3.76 0.511 4.43-1 8-0.701 2.62-1.37 5.24-2 7.88-1.23 5.08-2.53 10.1-4 15.1h-1c0.33-5.61 0.66-11.2 1-17 0.66 0.33 1.32 0.66 2 1 0.193-0.748 0.387-1.5 0.586-2.27 0.26-0.985 0.521-1.97 0.789-2.98 0.255-0.975 0.51-1.95 0.773-2.95 0.748-2.46 1.62-4.55 2.85-6.8z" fill="#214B74"/>
<path transform="translate(1142,686)" d="m0 0c1.65 0.33 3.3 0.66 5 1 0.195 6.05 0.195 6.05 0 8-0.66 0.66-1.32 1.32-2 2-0.66-0.33-1.32-0.66-2-1-0.33 0.66-0.66 1.32-1 2-0.762-4.32-1.16-7.74 0-12z" fill="#214C75"/>
<path transform="translate(730,648)" d="m0 0h1c0.33 4.29 0.66 8.58 1 13h-4v-3c-0.66-0.33-1.32-0.66-2-1v-4h2c0.217-0.959 0.217-0.959 0.438-1.94 0.562-2.06 0.562-2.06 1.56-3.06z" fill="#224A72"/>
<path transform="translate(630,578)" d="m0 0c0.99 0.33 1.98 0.66 3 1 0.33 0.99 0.66 1.98 1 3-0.33 0.66-0.66 1.32-1 2 0.186 0.825 0.371 1.65 0.562 2.5 0.144 0.825 0.289 1.65 0.438 2.5l-2 2c-0.33-0.99-0.66-1.98-1-3-1.32 0.33-2.64 0.66-4 1 0.309-1.46 0.622-2.92 0.938-4.38 0.174-0.812 0.348-1.62 0.527-2.46 0.535-2.16 0.535-2.16 1.54-4.16z" fill="#20476D"/>
<path transform="translate(472,593)" d="m0 0h1c0.33 2.97 0.66 5.94 1 9 0.66-0.66 1.32-1.32 2-2-0.164 0.848-0.327 1.7-0.496 2.57-0.513 3.49-0.602 6.78-0.566 10.3 0.00902 1.15 0.018 2.3 0.0273 3.49 0.0116 0.869 0.0232 1.74 0.0352 2.63h-1v-8h-2c-0.73-6.21-1.23-11.8 0-18z" fill="#214C75"/>
<path transform="translate(1047,572)" d="m0 0 4 1c0.1 3.51-0.231 6.58-1 10-0.186 0.928-0.371 1.86-0.562 2.81-0.144 0.722-0.289 1.44-0.438 2.19h-2c-0.194-2.29-0.38-4.58-0.562-6.88-0.157-1.91-0.157-1.91-0.316-3.87-0.121-3.26-0.121-3.26 0.879-5.26z" fill="#214A72"/>
<path transform="translate(624,680)" d="m0 0h1c0.25 1.43 0.474 2.87 0.688 4.31 0.128 0.801 0.255 1.6 0.387 2.43-0.0742 2.26-0.0742 2.26-1.3 4.05-1.77 1.21-1.77 1.21-5.77 1.21-0.625-2.81-0.625-2.81-1-6 0.66-0.99 1.32-1.98 2-3h3c0.33-0.99 0.66-1.98 1-3z" fill="#214C75"/>
<path transform="translate(1014,474)" d="m0 0c6.67-0.592 11.9 1.52 18 4-3.77 1.26-5.37 0.371-9-1v2h-6c-0.124-0.639-0.247-1.28-0.375-1.94-0.309-1.02-0.309-1.02-0.625-2.06l-2-1z" fill="#152F48"/>
<path transform="translate(569,468)" d="m0 0c3.38-0.125 3.38-0.125 7 0 2 2 2 2 2.12 5.62-0.0412 1.11-0.0825 2.23-0.125 3.38-2.47-1.15-4.05-2.05-6-4-0.536-0.495-1.07-0.99-1.62-1.5-1.38-1.5-1.38-1.5-1.38-3.5z" fill="#214B74"/>
<path transform="translate(775,632)" d="m0 0h3v7h2c-0.33 1.98-0.66 3.96-1 6-1.65-0.33-3.3-0.66-5-1 0.33-3.96 0.66-7.92 1-12z" fill="#214A72"/>
<path transform="translate(445,691)" d="m0 0h1v7h8c-1 2-1 2-2.78 2.67-0.713 0.171-1.43 0.343-2.16 0.52-1.07 0.269-1.07 0.269-2.15 0.543-1.91 0.27-1.91 0.27-3.91-0.73-0.625-2.56-0.625-2.56-1-5h2c0.33-1.65 0.66-3.3 1-5z" fill="#214B74"/>
<path transform="translate(604,699)" d="m0 0c2.49 3.76 2.03 6.87 1.62 11.2-0.111 1.26-0.222 2.53-0.336 3.83-0.0954 0.964-0.191 1.93-0.289 2.92h-3v-11h2v-7z" fill="#224A72"/>
<path transform="translate(611,748)" d="m0 0c1.06 4.26 0.775 5.67-0.438 9.75-0.287 0.985-0.575 1.97-0.871 2.98-0.342 1.12-0.342 1.12-0.691 2.27l-2-2c-2.07-0.643-2.07-0.643-4-1v-4h5c0.99-2.64 1.98-5.28 3-8z" fill="#214B74"/>
<path transform="translate(599,661)" d="m0 0v8c-1.65 0.33-3.3 0.66-5 1-0.66-0.99-1.32-1.98-2-3h2c0.124-0.804 0.247-1.61 0.375-2.44 0.206-0.846 0.413-1.69 0.625-2.56 2-1 2-1 4-1z" fill="#214A72"/>
<path transform="translate(779,613)" d="m0 0c1.32 0.66 2.64 1.32 4 2 0.369 7.51 0.369 7.51-1.5 10-0.495 0.33-0.99 0.66-1.5 1-0.99-0.66-1.98-1.32-3-2 0.66-3.63 1.32-7.26 2-11z" fill="#214A72"/>
<path transform="translate(607,737)" d="m0 0v11h-4c-1.23-3.69-0.644-6.21 0-10 3-1 3-1 4-1z" fill="#214C75"/>
<path transform="translate(615,635)" d="m0 0c-0.141 1.46-0.288 2.92-0.438 4.38-0.0812 0.812-0.162 1.62-0.246 2.46-0.316 2.16-0.316 2.16-1.32 4.16h-2c-0.33 0.99-0.66 1.98-1 3-1.47-5.47-0.563-8.16 2-13 2-1 2-1 3-1z" fill="#214B74"/>
<path transform="translate(539,530)" d="m0 0h3c0.772 5.41 1.1 10.5 1 16-0.99-0.33-1.98-0.66-3-1-0.847-5.08-1.09-9.85-1-15z" fill="#214A72"/>
<path transform="translate(1074,770)" d="m0 0c-1.26 2.51-2.5 2.87-5 4v-2c-0.743-0.124-1.48-0.247-2.25-0.375-2.55-0.58-4.48-1.36-6.75-2.62 9.77-1.82 9.77-1.82 14 1z" fill="#102335"/>
<path transform="translate(737,564)" d="m0 0c3 1 3 1 4.19 3.38 0.812 2.62 0.812 2.62 0.812 5.62h-5c-0.879-6.15-0.879-6.15-1-8l1-1z" fill="#224A72"/>
<path transform="translate(755,476)" d="m0 0v11c-0.99-0.33-1.98-0.66-3-1v-3l-2-1c0-3 0-3 2-5 2-1 2-1 3-1z" fill="#224A72"/>
<path transform="translate(565,719)" d="m0 0c0.33 0.66 0.66 1.32 1 2 0.99-0.33 1.98-0.66 3-1-0.114 1.77-0.242 3.54-0.375 5.31-0.104 1.48-0.104 1.48-0.211 2.99-0.414 2.7-0.414 2.7-2.41 5.7-0.33-4.95-0.66-9.9-1-15z" fill="#214B74"/>
<path transform="translate(807,568)" d="m0 0c1.95 0.68 1.95 0.68 4 2 0.609 2.38 0.609 2.38 0.75 5.12 0.0567 0.91 0.113 1.82 0.172 2.76 0.0258 0.699 0.0516 1.4 0.0781 2.12-1.95-0.68-1.95-0.68-4-2-0.609-2.38-0.609-2.38-0.75-5.12-0.0567-0.91-0.113-1.82-0.172-2.76-0.0258-0.699-0.0516-1.4-0.0781-2.12z" fill="#224A72"/>
<path transform="translate(1027 771)" d="m0 0c1.1 0.00902 2.19 0.018 3.32 0.0273 0.843 0.0116 1.69 0.0232 2.55 0.0352-0.33 0.99-0.66 1.98-1 3h-12c-0.33-0.66-0.66-1.32-1-2 2.76-1.38 5.05-1.1 8.12-1.06z" fill="#214C75"/>
<path transform="translate(446,476)" d="m0 0c0.33 0.99 0.66 1.98 1 3-1.19 1.56-1.19 1.56-3 3-2.69-0.312-2.69-0.312-5-1 0.375-1.94 0.375-1.94 1-4 2-1 2-1 6-1z" fill="#214A72"/>
<path transform="translate(446,714)" d="m0 0v3h-12v-2c3.98-1.33 7.85-1.07 12-1z" fill="#214C75"/>
<path transform="translate(711,504)" d="m0 0c0.33 0.66 0.66 1.32 1 2h3c0.33-0.66 0.66-1.32 1-2-0.33 2.97-0.66 5.94-1 9h-2c-2-2-2-2-2.12-5.62 0.0412-1.11 0.0825-2.23 0.125-3.38z" fill="#224A72"/>
<path transform="translate(714,759)" d="m0 0h2v9c-1.65 0.33-3.3 0.66-5 1-0.33-0.99-0.66-1.98-1-3 0.99-0.33 1.98-0.66 3-1 0.33-1.98 0.66-3.96 1-6z" fill="#224A72"/>
<path transform="translate(699,585)" d="m0 0h3v4h2c-0.33 2.31-0.66 4.62-1 7-0.66-0.99-1.32-1.98-2-3-0.66-0.66-1.32-1.32-2-2-0.125-3.12-0.125-3.12 0-6z" fill="#224A72"/>
<path transform="translate(730,569)" d="m0 0c0.99 0.33 1.98 0.66 3 1-0.613 2.96-1.25 4.38-3 7h-2l-2 2v-4h2c0.66-1.98 1.32-3.96 2-6z" fill="#214A72"/>
<path transform="translate(810,479)" d="m0 0c-0.33 1.98-0.66 3.96-1 6-1.65-0.33-3.3-0.66-5-1-0.33-1.32-0.66-2.64-1-4 4.75-1 4.75-1 7-1z" fill="#20476E"/>
<path transform="translate(443,587)" d="m0 0h3c-0.141 1.46-0.288 2.92-0.438 4.38-0.0812 0.812-0.162 1.62-0.246 2.46-0.316 2.16-0.316 2.16-1.32 4.16h-2c0.33-3.63 0.66-7.26 1-11z" fill="#214C75"/>
<path transform="translate(873,263)" d="m0 0h8v2c-2.31 0.33-4.62 0.66-7 1-0.33-0.99-0.66-1.98-1-3z" fill="#050A0F"/>
<path transform="translate(716 300)" d="m0 0c1.21 0.0309 1.21 0.0309 2.44 0.0625-1.32 0.99-2.64 1.98-4 3-0.66-0.66-1.32-1.32-2-2 1-1 1-1 3.56-1.06z" fill="#010102"/>
<path transform="translate(1150,282)" d="m0 0h2c0.33 1.98 0.66 3.96 1 6-0.99-0.66-1.98-1.32-3-2v-4z" fill="#020202"/>
<path transform="translate(822,338)" d="m0 0c-2.35 1.43-3.48 2.09-6.25 1.62-0.577-0.206-1.15-0.413-1.75-0.625 2.93-0.976 4.96-1.08 8-1z" fill="#010102"/>
<path transform="translate(496,770)" d="m0 0h7v1h-7v-1z" fill="#224A72"/>
<path transform="translate(586,519)" d="m0 0c1.06 1.88 1.06 1.88 2 4-0.33 0.66-0.66 1.32-1 2-1-1-1-1-1.06-3.56 0.0206-0.804 0.0412-1.61 0.0625-2.44z" fill="#0A1622"/>
<path transform="translate(806,473)" d="m0 0c0.33 1.32 0.66 2.64 1 4-0.99 0.495-0.99 0.495-2 1 0.33-1.65 0.66-3.3 1-5z" fill="#010102"/>
<path transform="translate(718,303)" d="m0 0c2.48 0.495 2.48 0.495 5 1v1h-5v-2z" fill="#17324C"/>
<path transform="translate(1153,283)" d="m0 0c1.48 0.99 1.48 0.99 3 2-0.33 0.66-0.66 1.32-1 2-0.66-1.32-1.32-2.64-2-4z" fill="#020202"/>
<path transform="translate(842,271)" d="m0 0v3c-0.99 0.495-0.99 0.495-2 1 0.66-1.32 1.32-2.64 2-4z" fill="#020202"/>
<path transform="translate(867,770)" d="m0 0h5v1h-5v-1z" fill="#224A72"/>
<path transform="translate(587,526)" d="m0 0h1v5h-1v-5z" fill="#020202"/>
<path transform="translate(704,302)" d="m0 0c0.99 0.33 1.98 0.66 3 1-0.99 0.33-1.98 0.66-3 1v-2z" fill="#020202"/>
<path transform="translate(1147,281)" d="m0 0c0.99 1.49 0.99 1.49 2 3l-2 1v-4z" fill="#010102"/>
<path transform="translate(739,257)" d="m0 0c0.99 0.33 1.98 0.66 3 1-0.99 0.33-1.98 0.66-3 1v-2z" fill="#020202"/>
<path transform="translate(674,616)" d="m0 0 1 4z" fill="#010102"/>
<path transform="translate(885,324)" d="m0 0 4 1z" fill="#020202"/>
<path transform="translate(911,345)" d="m0 0c0.66 0.66 1.32 1.32 2 2h-2v-2z" fill="#020202"/>
<path transform="translate(949,239)" d="m0 0c3 1 3 1 3 1z" fill="#F2931F"/>
<path transform="translate(724,305)" d="m0 0 2 1z" fill="#224A72"/>
<path transform="translate(662,296)" d="m0 0 2 1z" fill="#010102"/>
<path transform="translate(812,283)" d="m0 0 2 1z" fill="#020202"/>
<path transform="translate(832,279)" d="m0 0 2 1z" fill="#020202"/>
<path transform="translate(827,274)" d="m0 0 2 1z" fill="#224A72"/>
<path transform="translate(951,237)" d="m0 0 2 1z" fill="#000102"/>
</svg>
